<?xml version="1.0" encoding="UTF-8"?>
<svg version="1.1" xmlns="http://www.w3.org/2000/svg" width="341" height="330">
<path d="M0 0 C112.53 0 225.06 0 341 0 C341 108.9 341 217.8 341 330 C228.47 330 115.94 330 0 330 C0 221.1 0 112.2 0 0 Z " fill="#1F1F1F" transform="translate(0,0)"/>
<path d="M0 0 C0.66 0 1.32 0 2 0 C2.12571098 12.529194 1.94680317 25.03947953 1.5625 37.5625 C1.54285187 38.24966095 1.52320374 38.9368219 1.50296021 39.64480591 C1.44560611 41.61881895 1.38113477 43.59262125 1.31640625 45.56640625 C1.27974854 46.71052979 1.24309082 47.85465332 1.20532227 49.03344727 C1.03388693 51.51039228 0.71142429 53.63280529 0 56 C0.65266846 56.10376953 1.30533691 56.20753906 1.9777832 56.31445312 C9.22729766 57.54033724 16.1564101 59.36882627 23.1875 61.5 C25.24305862 62.11602321 27.29904024 62.73063696 29.35546875 63.34375 C30.32121826 63.63854248 31.28696777 63.93333496 32.28198242 64.23706055 C34.68950758 64.9128457 37.04123772 65.36871768 39.5 65.80078125 C43 67 43 67 45.20703125 70.01171875 C45.77157812 71.22371798 46.3064061 72.44995232 46.8125 73.6875 C47.35519531 74.88761719 47.89789063 76.08773437 48.45703125 77.32421875 C49.22080078 79.14373047 49.22080078 79.14373047 50 81 C50.49242187 82.14597656 50.98484375 83.29195313 51.4921875 84.47265625 C52.26122351 86.27172236 53.03008622 88.07086669 53.79467773 89.87182617 C57.08974513 97.6205904 60.50192822 105.13239451 64.65625 112.46875 C66.44042285 115.82963374 67.77939636 119.30414955 69.1328125 122.85546875 C70.16863493 125.41702962 71.54325424 127.65653942 73 130 C73.72416144 131.69383629 74.44749257 133.38804022 75.16381836 135.08520508 C76.48825936 138.1180783 77.99928447 141.05122562 79.5 144 C81.84491227 148.60754691 83.99756615 153.23379026 86 158 C87.1588981 160.71171401 88.32847334 163.41872226 89.5 166.125 C89.79519531 166.81464844 90.09039062 167.50429687 90.39453125 168.21484375 C91.69068532 171.20113705 92.95572449 173.93097046 94.71875 176.6796875 C96 179 96 179 96 184 C70.59 184 45.18 184 19 184 C19 183.01 19 182.02 19 181 C43.09 181 67.18 181 92 181 C89.7536481 174.83385415 89.7536481 174.83385415 87.0625 168.9921875 C86.72347656 168.33186523 86.38445312 167.67154297 86.03515625 166.99121094 C85.69355469 166.33411133 85.35195313 165.67701172 85 165 C84.33205732 163.69075437 83.66538493 162.38085988 83 161.0703125 C82.67233643 160.42521729 82.34467285 159.78012207 82.00708008 159.11547852 C79.03202128 153.23531989 76.26506281 147.39957963 73.9296875 141.23046875 C72.59937772 138.03884318 70.86502134 135.11896463 69.14453125 132.125 C67.80724563 129.64212158 66.87011593 127.07018755 65.93359375 124.4140625 C61.56625137 113.12110187 55.75828231 102.21879921 50.17578125 91.49609375 C46.7224209 84.81382795 43.77434572 78.33396229 42 71 C36.01751118 72.38268048 30.3674257 74.21124613 24.625 76.375 C23.79009033 76.68590576 22.95518066 76.99681152 22.0949707 77.31713867 C17.01971587 79.21498029 11.97407582 81.1754209 6.95703125 83.22265625 C4.34059351 84.26191994 1.68396073 85.15243345 -1 86 C-1.80102943 93.83142367 -2.23939139 101.63348086 -2.5 109.5 C-2.69782609 115.47141723 -2.90798199 121.41584348 -3.49609375 127.36328125 C-4.15443867 134.12627906 -4.34780744 140.89828782 -4.5625 147.6875 C-4.62727539 149.61625977 -4.62727539 149.61625977 -4.69335938 151.58398438 C-4.79836798 154.72257494 -4.90052405 157.86123004 -5 161 C-6.32 161.33 -7.64 161.66 -9 162 C-9.23521726 146.57155719 -8.8982755 131.37980063 -7.51171875 116.01171875 C-6.7082779 107.02459622 -6.36017544 98.01386422 -6 89 C-13.10747674 90.99009349 -19.90820377 93.29324618 -26.6875 96.1875 C-34.05598019 99.32295034 -41.54815478 101.97553541 -49.125 104.5625 C-50.811698 105.15067505 -50.811698 105.15067505 -52.5324707 105.75073242 C-57.19064862 107.37410418 -61.82596685 108.98193155 -66.578125 110.30859375 C-77.52385218 113.74320979 -81.77767344 120.36061117 -87.55712891 129.7109375 C-89.85044992 133.34920787 -92.36747596 136.82014279 -94.875 140.3125 C-95.86736945 141.71509703 -96.85822744 143.11876453 -97.84765625 144.5234375 C-98.35441895 145.24241211 -98.86118164 145.96138672 -99.38330078 146.70214844 C-104.03856629 153.31878374 -108.67431543 159.94917336 -113.30712891 166.58154297 C-114.51468264 168.30666949 -115.72567322 170.02939241 -116.93896484 171.75048828 C-117.88763428 173.09796143 -117.88763428 173.09796143 -118.85546875 174.47265625 C-119.43321045 175.2912915 -120.01095215 176.10992676 -120.60620117 176.95336914 C-122.02521346 178.9389067 -122.02521346 178.9389067 -123 181 C-122.4095414 180.99392447 -121.81908279 180.98784895 -121.21073151 180.98158932 C-106.82085593 180.83389606 -92.43093063 180.6921737 -78.0409317 180.5570364 C-71.08194306 180.49154125 -64.12298462 180.4240508 -57.1640625 180.35180664 C-50.4467923 180.28207687 -43.7294898 180.21798229 -37.01213074 180.15730476 C-34.45092451 180.13325219 -31.88973521 180.10731979 -29.3285675 180.07946587 C-25.73795212 180.04073909 -22.14733436 180.00873086 -18.55664062 179.97827148 C-16.97275543 179.95885246 -16.97275543 179.95885246 -15.35687256 179.93904114 C-9.79772481 179.89939371 -4.49800388 180.16358204 1 181 C1 181.99 1 182.98 1 184 C-1.97 184 -4.94 184 -8 184 C-7.97679687 185.00289062 -7.95359375 186.00578125 -7.9296875 187.0390625 C-7.74978794 199.28199465 -8.28874559 211.46603898 -8.9375 223.6875 C-9.00284943 224.94001556 -9.00284943 224.94001556 -9.06951904 226.21783447 C-9.19761879 228.64934528 -9.33021929 231.08056115 -9.46484375 233.51171875 C-9.50344009 234.23311539 -9.54203644 234.95451202 -9.58180237 235.69776917 C-9.87603052 240.82423583 -10.40058111 245.9000776 -11 251 C-14.99720481 250.11287076 -18.22728209 248.34152846 -21.75 246.3125 C-22.43247803 245.92384766 -23.11495605 245.53519531 -23.81811523 245.13476562 C-26.21652179 243.7640972 -28.60889653 242.38336913 -31 241 C-31.94182129 240.45520996 -32.88364258 239.91041992 -33.85400391 239.34912109 C-44.18252081 233.36451395 -54.4886724 227.34418025 -64.71142578 221.18041992 C-75.07357261 214.93405217 -85.53269498 208.85090062 -95.98925781 202.7644043 C-99.0872218 200.95950983 -102.18252249 199.15012057 -105.27734375 197.33984375 C-108.73922959 195.31492392 -112.20863257 193.30515133 -115.69140625 191.31640625 C-117.02361451 190.54457627 -118.35566085 189.77246671 -119.6875 189 C-120.80511719 188.360625 -121.92273438 187.72125 -123.07421875 187.0625 C-130.0588688 182.13874135 -134.23765813 174.33785623 -138.875 167.3125 C-139.55691406 166.28705078 -140.23882812 165.26160156 -140.94140625 164.20507812 C-142.97193297 161.14381736 -144.9862294 158.07230053 -147 155 C-148.01139038 153.48708374 -148.01139038 153.48708374 -149.04321289 151.94360352 C-149.99442017 150.49812134 -149.99442017 150.49812134 -150.96484375 149.0234375 C-151.53323975 148.1679834 -152.10163574 147.3125293 -152.68725586 146.43115234 C-156.34212555 139.66247234 -153.78518101 132.42471419 -151.91455078 125.41552734 C-149.88626248 117.81072995 -148.22830379 110.12785463 -146.5625 102.4375 C-146.25744031 101.03319559 -145.95234588 99.62889871 -145.6472168 98.22460938 C-145.04568071 95.45354509 -144.44544457 92.68220336 -143.84619141 89.91064453 C-143.08181819 86.37589134 -142.31321656 82.84207205 -141.54296875 79.30859375 C-140.74137173 75.63038516 -139.93979043 71.95217527 -139.140625 68.2734375 C-138.95862549 67.43603027 -138.77662598 66.59862305 -138.58911133 65.73583984 C-138.16211246 63.75285215 -137.74080957 61.76863517 -137.32299805 59.78369141 C-135.47301361 51.02475742 -133.43360029 42.32195402 -131.3125 33.625 C-130.98876091 32.29170827 -130.66519252 30.95837508 -130.34179688 29.625 C-129.5628631 26.4162579 -128.78224348 23.20793654 -128 20 C-121.52919267 20.6753734 -115.52659627 22.49641 -109.3125 24.375 C-102.21371577 26.50779832 -95.11634753 28.49494901 -87.91674805 30.25878906 C-83.31814548 31.42739686 -78.78643008 32.79984578 -74.25 34.1875 C-72.90035156 34.59645508 -72.90035156 34.59645508 -71.5234375 35.01367188 C-69.34815822 35.67319804 -67.17370588 36.33531041 -65 37 C-65 37.66 -65 38.32 -65 39 C-71.83057716 38.35375378 -78.20658943 36.75839195 -84.8125 34.9375 C-85.92802246 34.63384521 -87.04354492 34.33019043 -88.19287109 34.01733398 C-100.85275393 30.54163993 -113.43169708 26.79187868 -126 23 C-126.05696045 23.58225342 -126.1139209 24.16450684 -126.17260742 24.7644043 C-126.63194139 29.20554672 -127.22619111 33.47333319 -128.3125 37.8125 C-129.67054557 43.45564082 -130.82948438 49.11667459 -131.9375 54.8125 C-133.08694758 60.66871854 -134.31796633 66.46985912 -135.8125 72.25 C-138.34325953 82.04030879 -140.41804531 91.93373535 -142.53833008 101.81933594 C-142.68558029 102.50182907 -142.83283051 103.1843222 -142.98454285 103.88749695 C-143.38953078 105.76516827 -143.79177776 107.64343018 -144.19384766 109.52172852 C-145.01268971 113.05475177 -145.98625972 116.51853983 -147 120 C-147.35670394 121.62003037 -147.69263881 123.24488798 -148 124.875 C-148.89825489 129.60687843 -149.94307032 134.30153711 -151 139 C-137.62429202 134.13417776 -137.62429202 134.13417776 -124.375 128.9375 C-118.54420038 126.57399941 -112.66518092 124.45327816 -106.7199707 122.40356445 C-99.86207356 120.01076574 -93.13960111 117.30169888 -86.4230957 114.53955078 C-85.61445068 114.20938965 -84.80580566 113.87922852 -83.97265625 113.5390625 C-83.25343994 113.24209473 -82.53422363 112.94512695 -81.79321289 112.63916016 C-80 112 -80 112 -78 112 C-77.78859375 111.34128906 -77.5771875 110.68257813 -77.359375 110.00390625 C-75.50479179 105.90570371 -72.92463761 102.53835107 -70.25 98.9375 C-69.06769557 97.32387924 -67.88675395 95.70925923 -66.70703125 94.09375 C-66.09553223 93.25714844 -65.4840332 92.42054688 -64.85400391 91.55859375 C-61.83114336 87.38693475 -58.88389435 83.163347 -55.9375 78.9375 C-55.35919434 78.1112915 -54.78088867 77.28508301 -54.18505859 76.43383789 C-51.30091336 72.31114975 -48.43340366 68.17813651 -45.58984375 64.02734375 C-44.51823351 62.4765595 -43.44661912 60.92577811 -42.375 59.375 C-41.89023193 58.65820068 -41.40546387 57.94140137 -40.90600586 57.20288086 C-40.4497583 56.54553955 -39.99351074 55.88819824 -39.5234375 55.2109375 C-39.13075684 54.63649902 -38.73807617 54.06206055 -38.33349609 53.47021484 C-36.74458273 51.71839568 -35.15433326 50.93470542 -33 50 C-33.62022351 53.54413437 -35.02096463 55.65440131 -37.1875 58.5 C-41.15908842 63.83103893 -45.00567179 69.23752938 -48.8125 74.6875 C-49.41408936 75.54762695 -50.01567871 76.40775391 -50.63549805 77.29394531 C-54.91017704 83.41519855 -59.13851876 89.56716041 -63.35400391 95.72924805 C-66.45390565 100.24539321 -69.65513782 104.66071933 -73 109 C-67.14823093 107.08016862 -61.33869298 105.07376037 -55.5625 102.9375 C-54.76827637 102.64439941 -53.97405273 102.35129883 -53.15576172 102.04931641 C-42.80162606 98.20912413 -32.50458762 94.21859417 -22.20410156 90.23730469 C-16.80497915 88.1523647 -11.40230664 86.07667328 -6 84 C-5.34 75.09 -4.68 66.18 -4 57 C-6.97 56.34 -9.94 55.68 -13 55 C-17.27860954 53.896441 -21.53618623 52.72058553 -25.79443359 51.54101562 C-27.75906397 50.99749242 -29.72515541 50.45950262 -31.69140625 49.921875 C-32.94308594 49.57640625 -34.19476563 49.2309375 -35.484375 48.875 C-36.61584961 48.56304687 -37.74732422 48.25109375 -38.91308594 47.9296875 C-41.68967861 47.09345965 -44.33001371 46.12630313 -47 45 C-47 44.34 -47 43.68 -47 43 C-39.83558847 43.54600047 -33.51223852 45.17804543 -26.6875 47.375 C-24.65955565 48.01135439 -22.63091424 48.64549191 -20.6015625 49.27734375 C-19.63766602 49.57753418 -18.67376953 49.87772461 -17.68066406 50.18701172 C-12.83492432 51.65662131 -7.93932983 52.88466746 -3 54 C-3.02320313 53.02546875 -3.04640625 52.0509375 -3.0703125 51.046875 C-3.2923276 36.6401766 -2.15334682 22.35241961 -1 8 C-1.66 8 -2.32 8 -3 8 C-3.26949463 8.73734375 -3.53898926 9.4746875 -3.81665039 10.234375 C-4.95713971 12.89983054 -6.21510989 14.92750656 -7.93359375 17.25 C-8.50013672 18.0234375 -9.06667969 18.796875 -9.65039062 19.59375 C-10.53500977 20.78484375 -10.53500977 20.78484375 -11.4375 22 C-12.60471584 23.5819691 -13.77013477 25.16526587 -14.93359375 26.75 C-15.47612793 27.48605469 -16.01866211 28.22210938 -16.57763672 28.98046875 C-18.1353794 31.119973 -18.1353794 31.119973 -19.72265625 34.0625 C-20.14417969 34.701875 -20.56570312 35.34125 -21 36 C-21.99 36 -22.98 36 -24 36 C-23.37272884 32.63554558 -22.12501068 30.43866823 -20.15625 27.65625 C-19.28178223 26.41246582 -19.28178223 26.41246582 -18.38964844 25.14355469 C-17.76606445 24.27118164 -17.14248047 23.39880859 -16.5 22.5 C-15.55302246 21.16437012 -15.55302246 21.16437012 -14.58691406 19.80175781 C-12.73287458 17.19513525 -10.8685491 14.59623489 -9 12 C-8.25266602 10.95682617 -8.25266602 10.95682617 -7.49023438 9.89257812 C-2.17398123 2.49906254 -2.17398123 2.49906254 0 0 Z " fill="#E0E0E0" transform="translate(193,47)"/>
<path d="M0 0 C35.97 0 71.94 0 109 0 C108 43 108 43 106 62 C101.45002101 61.0900042 99.29418411 60.22024894 95.44921875 57.89453125 C94.36995117 57.24750244 93.29068359 56.60047363 92.17871094 55.93383789 C91.0149562 55.22675449 89.85121966 54.51964113 88.6875 53.8125 C86.86810374 52.71808798 85.04715032 51.6262974 83.22616577 50.53453064 C81.98429837 49.78966966 80.74294868 49.04394486 79.50210571 48.29737854 C73.45255281 44.65964524 67.35537849 41.10562932 61.25 37.5625 C54.45132833 33.60941506 47.6763149 29.62542161 40.95166016 25.54785156 C36.87241828 23.08879017 32.75538058 20.70033545 28.625 18.328125 C27.76665054 17.83511147 27.76665054 17.83511147 26.89096069 17.33213806 C24.02055514 15.68433486 21.14790576 14.04074318 18.27197266 12.40258789 C5.10688975 4.8616459 5.10688975 4.8616459 0 1 C0 0.67 0 0.34 0 0 Z " fill="#212121" transform="translate(73,231)"/>
<path d="M0 0 C0.66 0 1.32 0 2 0 C2.12571098 12.529194 1.94680317 25.03947953 1.5625 37.5625 C1.54285187 38.24966095 1.52320374 38.9368219 1.50296021 39.64480591 C1.44560611 41.61881895 1.38113477 43.59262125 1.31640625 45.56640625 C1.27974854 46.71052979 1.24309082 47.85465332 1.20532227 49.03344727 C1.03388693 51.51039228 0.71142429 53.63280529 0 56 C0.65266846 56.10376953 1.30533691 56.20753906 1.9777832 56.31445312 C9.22729766 57.54033724 16.1564101 59.36882627 23.1875 61.5 C25.24305862 62.11602321 27.29904024 62.73063696 29.35546875 63.34375 C30.32121826 63.63854248 31.28696777 63.93333496 32.28198242 64.23706055 C34.68950758 64.9128457 37.04123772 65.36871768 39.5 65.80078125 C43 67 43 67 45.20703125 70.01171875 C45.77157812 71.22371798 46.3064061 72.44995232 46.8125 73.6875 C47.35519531 74.88761719 47.89789063 76.08773437 48.45703125 77.32421875 C48.96621094 78.53722656 49.47539062 79.75023438 50 81 C50.49242187 82.14597656 50.98484375 83.29195313 51.4921875 84.47265625 C52.26122351 86.27172236 53.03008622 88.07086669 53.79467773 89.87182617 C57.08974513 97.6205904 60.50192822 105.13239451 64.65625 112.46875 C66.44042285 115.82963374 67.77939636 119.30414955 69.1328125 122.85546875 C70.16863493 125.41702962 71.54325424 127.65653942 73 130 C73.72416144 131.69383629 74.44749257 133.38804022 75.16381836 135.08520508 C76.48825936 138.1180783 77.99928447 141.05122562 79.5 144 C81.84491227 148.60754691 83.99756615 153.23379026 86 158 C87.1588981 160.71171401 88.32847334 163.41872226 89.5 166.125 C89.79519531 166.81464844 90.09039062 167.50429687 90.39453125 168.21484375 C91.69068532 171.20113705 92.95572449 173.93097046 94.71875 176.6796875 C96 179 96 179 96 184 C70.59 184 45.18 184 19 184 C19 183.01 19 182.02 19 181 C43.09 181 67.18 181 92 181 C89.7536481 174.83385415 89.7536481 174.83385415 87.0625 168.9921875 C86.72347656 168.33186523 86.38445312 167.67154297 86.03515625 166.99121094 C85.69355469 166.33411133 85.35195313 165.67701172 85 165 C84.33205732 163.69075437 83.66538493 162.38085988 83 161.0703125 C82.67233643 160.42521729 82.34467285 159.78012207 82.00708008 159.11547852 C79.03202128 153.23531989 76.26506281 147.39957963 73.9296875 141.23046875 C72.59937772 138.03884318 70.86502134 135.11896463 69.14453125 132.125 C67.80724563 129.64212158 66.87011593 127.07018755 65.93359375 124.4140625 C61.56625137 113.12110187 55.75828231 102.21879921 50.17578125 91.49609375 C46.7224209 84.81382795 43.77434572 78.33396229 42 71 C36.01751118 72.38268048 30.3674257 74.21124613 24.625 76.375 C23.79009033 76.68590576 22.95518066 76.99681152 22.0949707 77.31713867 C17.01971587 79.21498029 11.97407582 81.1754209 6.95703125 83.22265625 C4.34059351 84.26191994 1.68396073 85.15243345 -1 86 C-1.80102943 93.83142367 -2.23939139 101.63348086 -2.5 109.5 C-2.69782609 115.47141723 -2.90798199 121.41584348 -3.49609375 127.36328125 C-4.15443867 134.12627906 -4.34780744 140.89828782 -4.5625 147.6875 C-4.62727539 149.61625977 -4.62727539 149.61625977 -4.69335938 151.58398438 C-4.79836798 154.72257494 -4.90052405 157.86123004 -5 161 C-6.32 161.33 -7.64 161.66 -9 162 C-9.23521726 146.57155719 -8.8982755 131.37980063 -7.51171875 116.01171875 C-6.7082779 107.02459622 -6.36017544 98.01386422 -6 89 C-6.99 88.67 -7.98 88.34 -9 88 C-9.99 87.01 -9.99 87.01 -11 86 C-8.525 85.01 -8.525 85.01 -6 84 C-5.34 75.09 -4.68 66.18 -4 57 C-6.97 56.34 -9.94 55.68 -13 55 C-17.27860954 53.896441 -21.53618623 52.72058553 -25.79443359 51.54101562 C-27.75906397 50.99749242 -29.72515541 50.45950262 -31.69140625 49.921875 C-32.94308594 49.57640625 -34.19476563 49.2309375 -35.484375 48.875 C-36.61584961 48.56304687 -37.74732422 48.25109375 -38.91308594 47.9296875 C-41.68967861 47.09345965 -44.33001371 46.12630313 -47 45 C-47 44.34 -47 43.68 -47 43 C-39.83558847 43.54600047 -33.51223852 45.17804543 -26.6875 47.375 C-24.65955565 48.01135439 -22.63091424 48.64549191 -20.6015625 49.27734375 C-19.63766602 49.57753418 -18.67376953 49.87772461 -17.68066406 50.18701172 C-12.83492432 51.65662131 -7.93932983 52.88466746 -3 54 C-3.02320313 53.02546875 -3.04640625 52.0509375 -3.0703125 51.046875 C-3.2923276 36.6401766 -2.15334682 22.35241961 -1 8 C-1.66 8 -2.32 8 -3 8 C-3.40424194 9.10601562 -3.40424194 9.10601562 -3.81665039 10.234375 C-4.95713971 12.89983054 -6.21510989 14.92750656 -7.93359375 17.25 C-8.50013672 18.0234375 -9.06667969 18.796875 -9.65039062 19.59375 C-10.24013672 20.3878125 -10.82988281 21.181875 -11.4375 22 C-12.60471584 23.5819691 -13.77013477 25.16526587 -14.93359375 26.75 C-15.47612793 27.48605469 -16.01866211 28.22210938 -16.57763672 28.98046875 C-18.1353794 31.119973 -18.1353794 31.119973 -19.72265625 34.0625 C-20.14417969 34.701875 -20.56570312 35.34125 -21 36 C-21.99 36 -22.98 36 -24 36 C-23.37272884 32.63554558 -22.12501068 30.43866823 -20.15625 27.65625 C-19.57327148 26.82706055 -18.99029297 25.99787109 -18.38964844 25.14355469 C-17.76606445 24.27118164 -17.14248047 23.39880859 -16.5 22.5 C-15.86868164 21.60958008 -15.23736328 20.71916016 -14.58691406 19.80175781 C-12.73287458 17.19513525 -10.8685491 14.59623489 -9 12 C-8.50177734 11.30455078 -8.00355469 10.60910156 -7.49023438 9.89257812 C-2.17398123 2.49906254 -2.17398123 2.49906254 0 0 Z " fill="#DEDEDE" transform="translate(193,47)"/>
<path d="M0 0 C-1.57963125 4.93872662 -4.48832184 8.52776875 -7.625 12.5625 C-12.04896737 18.35048541 -16.23199954 24.19681219 -20.22265625 30.29296875 C-22.39510888 33.60178122 -24.65250893 36.84243739 -26.9375 40.07421875 C-28.63728725 42.48546999 -30.32128884 44.906127 -32 47.33203125 C-33.08320122 48.88811281 -34.16653532 50.44410187 -35.25 52 C-36.02972168 53.13248169 -36.02972168 53.13248169 -36.82519531 54.2878418 C-37.56914551 55.35192261 -37.56914551 55.35192261 -38.328125 56.4375 C-38.7705957 57.07558594 -39.21306641 57.71367187 -39.66894531 58.37109375 C-41 60 -41 60 -44 62 C-49.70427301 54.27754291 -55.1724292 46.42392327 -60.5 38.4375 C-61.59054688 36.82004883 -61.59054688 36.82004883 -62.703125 35.16992188 C-63.38890625 34.14318359 -64.0746875 33.11644531 -64.78125 32.05859375 C-65.40064453 31.13361084 -66.02003906 30.20862793 -66.65820312 29.25561523 C-68 27 -68 27 -68 25 C-67.37996094 24.78085938 -66.75992188 24.56171875 -66.12109375 24.3359375 C-60.53385096 22.33526541 -55.00227958 20.22316447 -49.5 18 C-44.27709309 15.89103909 -39.02890384 13.88867793 -33.7265625 11.98828125 C-27.08087198 9.57945646 -20.48758029 7.02432 -13.9453125 4.34765625 C-13.26758789 4.07163574 -12.58986328 3.79561523 -11.89160156 3.51123047 C-10.57133347 2.97193452 -9.25288575 2.42815514 -7.93652344 1.87939453 C-5.11300567 0.72679911 -3.08379989 0 0 0 Z " fill="#232323" transform="translate(110,164)"/>
<path d="M0 0 C3.88983802 1.84579309 9.00380466 4.40989212 10.625 8.625 C11.613811 14.8874697 11.64623689 19.65218589 8 25 C3.45338743 29.00534917 -1.03984968 30.26751124 -7 30 C-11.74217807 28.38944896 -14.2153254 26.12544386 -17 22 C-18.4530808 17.6407576 -18.63097336 13.5515157 -18 9 C-14.5011527 2.0023054 -7.64419299 -1.54286464 0 0 Z " fill="#242424" transform="translate(285,275)"/>
<path d="M0 0 C4.83831756 2.3295603 7.6006196 5.20123921 10 10 C10.81489668 16.41731135 9.70890694 19.74571517 6 25 C1.56731552 29.02971317 -2.77802532 29.34856375 -8.55859375 29.28125 C-13.09498808 28.75865737 -14.99994978 26.17247268 -17.8125 22.875 C-20.04103673 17.47959528 -19.70126107 12.10378321 -17.875 6.625 C-13.17981458 0.05174041 -7.68016096 -1.22582374 0 0 Z " fill="#232323" transform="translate(125,20)"/>
<path d="M0 0 C36.63 0 73.26 0 111 0 C111.495 6.435 111.495 6.435 112 13 C112.33 13 112.66 13 113 13 C112.457316 31.38066304 111.43548419 49.66884603 110 68 C106.00279519 67.11287076 102.77271791 65.34152846 99.25 63.3125 C98.56752197 62.92384766 97.88504395 62.53519531 97.18188477 62.13476562 C94.78347821 60.7640972 92.39110347 59.38336913 90 58 C89.05817871 57.45520996 88.11635742 56.91041992 87.14599609 56.34912109 C76.81747919 50.36451395 66.5113276 44.34418025 56.28857422 38.18041992 C41.94499702 29.53402072 27.43601407 21.16163083 12.96630859 12.72900391 C7.9767509 9.82068723 2.98839533 6.91030981 -2 4 C-1.34 3.67 -0.68 3.34 0 3 C0 2.01 0 1.02 0 0 Z M1 1 C4.29895733 4.29895733 6.54539048 6.09141443 10.48046875 8.3203125 C11.55329102 8.93277832 12.62611328 9.54524414 13.73144531 10.17626953 C14.87194336 10.81935059 16.01244141 11.46243164 17.1875 12.125 C18.37510597 12.80116327 19.56227749 13.47809015 20.74902344 14.15576172 C23.09958755 15.49782103 25.45143047 16.83759121 27.80419922 18.17578125 C31.80555301 20.45982369 35.78341973 22.78122336 39.75 25.125 C40.4112085 25.51502197 41.07241699 25.90504395 41.75366211 26.30688477 C43.83657791 27.53657003 45.9184204 28.76805431 48 30 C51.41646472 32.02117493 54.83314668 34.04198207 58.25 36.0625 C59.14678467 36.59294922 60.04356934 37.12339844 60.9675293 37.66992188 C70.41886442 43.25595248 79.89160596 48.80537006 89.36621094 54.35180664 C89.9690239 54.70480331 90.57183685 55.05779999 91.19291687 55.42149353 C92.83492958 56.38296564 94.47714999 57.34408302 96.11938477 58.30517578 C97.99718122 59.40998661 99.85605238 60.54781761 101.69116211 61.72216797 C103.9976585 63.24211811 103.9976585 63.24211811 107 63 C109.16601676 42.42284076 109.5189476 21.68525319 110 1 C74.03 1 38.06 1 1 1 Z " fill="#CCCCCC" transform="translate(72,230)"/>
<path d="M0 0 C6.47080733 0.6753734 12.47340373 2.49641 18.6875 4.375 C25.78628423 6.50779832 32.88365247 8.49494901 40.08325195 10.25878906 C44.68185452 11.42739686 49.21356992 12.79984578 53.75 14.1875 C55.09964844 14.59645508 55.09964844 14.59645508 56.4765625 15.01367188 C58.65184178 15.67319804 60.82629412 16.33531041 63 17 C63 17.66 63 18.32 63 19 C56.16942284 18.35375378 49.79341057 16.75839195 43.1875 14.9375 C42.07197754 14.63384521 40.95645508 14.33019043 39.80712891 14.01733398 C27.14724607 10.54163993 14.56830292 6.79187868 2 3 C1.94303955 3.58225342 1.8860791 4.16450684 1.82739258 4.7644043 C1.36805861 9.20554672 0.77380889 13.47333319 -0.3125 17.8125 C-1.67054557 23.45564082 -2.82948438 29.11667459 -3.9375 34.8125 C-5.08694758 40.66871854 -6.31796633 46.46985912 -7.8125 52.25 C-10.34325953 62.04030879 -12.41804531 71.93373535 -14.53833008 81.81933594 C-14.68558029 82.50182907 -14.83283051 83.1843222 -14.98454285 83.88749695 C-15.38953078 85.76516827 -15.79177776 87.64343018 -16.19384766 89.52172852 C-17.01268971 93.05475177 -17.98625972 96.51853983 -19 100 C-19.35670394 101.62003037 -19.69263881 103.24488798 -20 104.875 C-20.89825489 109.60687843 -21.94307032 114.30153711 -23 119 C-20.14477013 117.96117578 -17.29064867 116.9195168 -14.4375 115.875 C-13.5822876 115.56240234 -12.7270752 115.24980469 -11.84594727 114.92773438 C-5.09257253 112.4425226 1.56189837 109.76613115 8.19140625 106.96875 C9.11824219 106.6490625 10.04507813 106.329375 11 106 C11.99 106.495 11.99 106.495 13 107 C12 110 12 110 10.02563477 111.01147461 C9.17283936 111.30546143 8.32004395 111.59944824 7.44140625 111.90234375 C6.49716797 112.23556641 5.55292969 112.56878906 4.58007812 112.91210938 C3.58427734 113.25048828 2.58847656 113.58886719 1.5625 113.9375 C-0.37426146 114.61166445 -2.31046345 115.2874384 -4.24609375 115.96484375 C-5.67284424 116.46153564 -5.67284424 116.46153564 -7.12841797 116.96826172 C-11.46703157 118.52709364 -15.73661793 120.24730873 -20 122 C-20.33 121.34 -20.66 120.68 -21 120 C-21.99 120 -22.98 120 -24 120 C-24.66 119.34 -25.32 118.68 -26 118 C-25.74347351 113.38252319 -24.81661406 109.13718413 -23.66015625 104.66796875 C-21.8167718 97.37658116 -20.21586419 90.03729255 -18.625 82.6875 C-18.31754619 81.27356473 -18.00992685 79.85966543 -17.70214844 78.44580078 C-17.08785133 75.62245259 -16.47458056 72.79888485 -15.86230469 69.97509766 C-15.09009117 66.41390739 -14.31510063 62.85332779 -13.5390625 59.29296875 C-12.73885944 55.61994876 -11.9386959 51.94692142 -11.140625 48.2734375 C-10.95862549 47.43603027 -10.77662598 46.59862305 -10.58911133 45.73583984 C-10.16211246 43.75285215 -9.74080957 41.76863517 -9.32299805 39.78369141 C-7.47301361 31.02475742 -5.43360029 22.32195402 -3.3125 13.625 C-2.98876091 12.29170827 -2.66519252 10.95837508 -2.34179688 9.625 C-1.5628631 6.4162579 -0.78224348 3.20793654 0 0 Z " fill="#D8D8D8" transform="translate(65,67)"/>
<path d="M0 0 C1.10675619 2.1862225 2.21044378 4.37390948 3.3125 6.5625 C3.7755957 7.47612305 3.7755957 7.47612305 4.24804688 8.40820312 C6.32715643 12.54453687 8.20812478 16.72889003 10 21 C13.547994 29.37553865 17.16825389 37.54313985 21.65625 45.46875 C23.44042285 48.82963374 24.77939636 52.30414955 26.1328125 55.85546875 C27.16863493 58.41702962 28.54325424 60.65653942 30 63 C30.72416144 64.69383629 31.44749257 66.38804022 32.16381836 68.08520508 C33.48825936 71.1180783 34.99928447 74.05122562 36.5 77 C38.84491227 81.60754691 40.99756615 86.23379026 43 91 C44.1588981 93.71171401 45.32847334 96.41872226 46.5 99.125 C46.79519531 99.81464844 47.09039062 100.50429687 47.39453125 101.21484375 C48.69068532 104.20113705 49.95572449 106.93097046 51.71875 109.6796875 C53 112 53 112 53 117 C27.59 117 2.18 117 -24 117 C-24 116.01 -24 115.02 -24 114 C0.09 114 24.18 114 49 114 C46.7536481 107.83385415 46.7536481 107.83385415 44.0625 101.9921875 C43.72347656 101.33186523 43.38445312 100.67154297 43.03515625 99.99121094 C42.69355469 99.33411133 42.35195313 98.67701172 42 98 C41.33205732 96.69075437 40.66538493 95.38085988 40 94.0703125 C39.67233643 93.42521729 39.34467285 92.78012207 39.00708008 92.11547852 C36.03202128 86.23531989 33.26506281 80.39957963 30.9296875 74.23046875 C29.59937772 71.03884318 27.86502134 68.11896463 26.14453125 65.125 C24.80724563 62.64212158 23.87011593 60.07018755 22.93359375 57.4140625 C18.56625137 46.12110187 12.75828231 35.21879921 7.17578125 24.49609375 C4.0125926 18.3697404 1.24948748 12.57202921 -0.19921875 5.79296875 C-0.46347656 5.20128906 -0.72773438 4.60960938 -1 4 C-3.0178602 3.17316212 -3.0178602 3.17316212 -5 3 C-2.25 0 -2.25 0 0 0 Z " fill="#C7C7C7" transform="translate(236,114)"/>
<path d="M0 0 C10.4408641 2.39626389 20.72583075 4.96618824 31 8 C33.33216517 8.6708329 35.66597423 9.33565513 38 10 C35.4337238 11.7108508 33.41628031 12.70280688 30.5703125 13.76953125 C29.26187378 14.26356445 29.26187378 14.26356445 27.92700195 14.76757812 C27.00234131 15.11240234 26.07768066 15.45722656 25.125 15.8125 C23.22515954 16.5270756 21.32541984 17.24191917 19.42578125 17.95703125 C18.49975098 18.30459473 17.5737207 18.6521582 16.61962891 19.01025391 C12.1635465 20.69384739 7.73223679 22.44020754 3.30078125 24.1875 C1 25 1 25 -1 25 C-0.67 16.75 -0.34 8.5 0 0 Z " fill="#262626" transform="translate(192,105)"/>
<path d="M0 0 C0.33 0 0.66 0 1 0 C0.98839844 0.78246094 0.97679687 1.56492187 0.96484375 2.37109375 C0.95582031 3.38300781 0.94679687 4.39492187 0.9375 5.4375 C0.92589844 6.44683594 0.91429687 7.45617187 0.90234375 8.49609375 C0.71387324 10.94021067 0.71387324 10.94021067 2 12 C2.33 12 2.66 12 3 12 C2.88051779 16.92566377 2.75620842 21.85117515 2.62768555 26.77661133 C2.58473559 28.44747727 2.54303823 30.11837595 2.50268555 31.78930664 C2.30398509 39.98508737 2.08032678 48.12500252 1.23852539 56.28442383 C0.73027427 62.07078739 0.62103883 67.88346061 0.4375 73.6875 C0.37272461 75.61625977 0.37272461 75.61625977 0.30664062 77.58398438 C0.20163202 80.72257494 0.09947595 83.86123004 0 87 C-1.98 87.495 -1.98 87.495 -4 88 C-4.23521726 72.57155719 -3.8982755 57.37980063 -2.51171875 42.01171875 C-1.7082779 33.02459622 -1.36017544 24.01386422 -1 15 C-1.99 14.67 -2.98 14.34 -4 14 C-4.66 13.34 -5.32 12.68 -6 12 C-4.35 11.34 -2.7 10.68 -1 10 C-0.67 6.7 -0.34 3.4 0 0 Z " fill="#A6A6A6" transform="translate(188,121)"/>
<path d="M0 0 C4.07056001 1.24641611 7.57744611 2.73979318 11.23828125 4.90625 C12.2142627 5.47996338 13.19024414 6.05367676 14.19580078 6.64477539 C15.22431152 7.25699951 16.25282227 7.86922363 17.3125 8.5 C18.38483887 9.13220459 19.45717773 9.76440918 20.56201172 10.41577148 C22.72029421 11.68874142 24.87721916 12.96401611 27.03271484 14.24169922 C30.22836198 16.13531866 33.43103254 18.01662624 36.63549805 19.89526367 C39.35487857 21.49071812 42.07056985 23.09239478 44.78613281 24.69433594 C46.34245134 25.61220002 47.89912377 26.52946414 49.45605469 27.44628906 C55.97727102 31.28647922 62.49118875 35.13882323 69 39 C70.12889648 39.66918457 71.25779297 40.33836914 72.42089844 41.02783203 C75.90873585 43.09664444 79.3920387 45.17298878 82.875 47.25 C83.98166016 47.90637451 85.08832031 48.56274902 86.22851562 49.23901367 C87.24365234 49.84592041 88.25878906 50.45282715 89.3046875 51.078125 C90.6656958 51.88878418 90.6656958 51.88878418 92.05419922 52.71582031 C92.69631348 53.13959961 93.33842773 53.56337891 94 54 C94 54.33 94 54.66 94 55 C89.73367409 55.33676478 87.43327262 54.43611375 83.7890625 52.25390625 C82.79914307 51.66834961 81.80922363 51.08279297 80.78930664 50.47949219 C79.74508545 49.84688477 78.70086426 49.21427734 77.625 48.5625 C76.54661865 47.92086914 75.4682373 47.27923828 74.35717773 46.61816406 C71.23181296 44.75572663 68.1150203 42.87967254 65 41 C63.56164942 40.13856859 62.12291696 39.27777406 60.68359375 38.41796875 C58.29668152 36.99027122 55.91290008 35.5575502 53.53125 34.12109375 C49.72226533 31.82782082 45.89476296 29.56661296 42.0625 27.3125 C41.37679932 26.90902344 40.69109863 26.50554687 39.98461914 26.08984375 C35.63224566 23.53360233 31.26986406 20.99511959 26.90234375 18.46484375 C25.84329834 17.85020264 24.78425293 17.23556152 23.69311523 16.60229492 C21.61726423 15.39811406 19.54002608 14.19632018 17.46118164 12.99731445 C3.72569384 5.02567271 3.72569384 5.02567271 0 2 C0 1.34 0 0.68 0 0 Z " fill="#E0E0E0" transform="translate(73,233)"/>
<path d="M0 0 C0.66 0 1.32 0 2 0 C2.11885598 11.84597928 2.00951002 23.68415765 1.68161011 35.52609253 C1.64390526 36.92405833 1.60949543 38.32211694 1.57839966 39.72024536 C1.53318004 41.70175897 1.47389309 43.68293623 1.4140625 45.6640625 C1.3826416 46.81342285 1.3512207 47.9627832 1.31884766 49.14697266 C1 52 1 52 -1 55 C-1.33 53.02 -1.66 51.04 -2 49 C-2.33 49 -2.66 49 -3 49 C-3.14109129 39.67719719 -2.72274221 30.48059748 -2 21.1875 C-1.90460938 19.91068359 -1.80921875 18.63386719 -1.7109375 17.31835938 C-1.47824311 14.21188922 -1.24120375 11.10581899 -1 8 C-1.66 8 -2.32 8 -3 8 C-3.26949463 8.73734375 -3.53898926 9.4746875 -3.81665039 10.234375 C-4.95713971 12.89983054 -6.21510989 14.92750656 -7.93359375 17.25 C-8.50013672 18.0234375 -9.06667969 18.796875 -9.65039062 19.59375 C-10.53500977 20.78484375 -10.53500977 20.78484375 -11.4375 22 C-12.60471584 23.5819691 -13.77013477 25.16526587 -14.93359375 26.75 C-15.47612793 27.48605469 -16.01866211 28.22210938 -16.57763672 28.98046875 C-18.1353794 31.119973 -18.1353794 31.119973 -19.72265625 34.0625 C-20.14417969 34.701875 -20.56570312 35.34125 -21 36 C-21.99 36 -22.98 36 -24 36 C-23.37272884 32.63554558 -22.12501068 30.43866823 -20.15625 27.65625 C-19.28178223 26.41246582 -19.28178223 26.41246582 -18.38964844 25.14355469 C-17.76606445 24.27118164 -17.14248047 23.39880859 -16.5 22.5 C-15.86868164 21.60958008 -15.23736328 20.71916016 -14.58691406 19.80175781 C-12.73287458 17.19513525 -10.8685491 14.59623489 -9 12 C-8.50177734 11.30455078 -8.00355469 10.60910156 -7.49023438 9.89257812 C-2.17398123 2.49906254 -2.17398123 2.49906254 0 0 Z " fill="#DADADA" transform="translate(193,47)"/>
<path d="M0 0 C6.47080733 0.6753734 12.47340373 2.49641 18.6875 4.375 C25.78628423 6.50779832 32.88365247 8.49494901 40.08325195 10.25878906 C44.68185452 11.42739686 49.21356992 12.79984578 53.75 14.1875 C55.09964844 14.59645508 55.09964844 14.59645508 56.4765625 15.01367188 C58.65184178 15.67319804 60.82629412 16.33531041 63 17 C63 17.66 63 18.32 63 19 C56.16942284 18.35375378 49.79341057 16.75839195 43.1875 14.9375 C42.07197754 14.63384521 40.95645508 14.33019043 39.80712891 14.01733398 C27.14724607 10.54163993 14.56830292 6.79187868 2 3 C1.94376465 3.57427734 1.8875293 4.14855469 1.82958984 4.74023438 C0.78429838 14.83703766 -1.59810859 24.4423051 -5 34 C-5.33 34 -5.66 34 -6 34 C-6.39627632 26.21482149 -4.92691687 19.45855166 -3 11.9375 C-2.71382812 10.78572266 -2.42765625 9.63394531 -2.1328125 8.44726562 C-1.43117814 5.62903428 -0.72006884 2.81356687 0 0 Z " fill="#DFDFDF" transform="translate(65,67)"/>
<path d="M0 0 C3.88983802 1.84579309 9.00380466 4.40989212 10.625 8.625 C11.613811 14.8874697 11.64623689 19.65218589 8 25 C3.45338743 29.00534917 -1.03984968 30.26751124 -7 30 C-11.74217807 28.38944896 -14.2153254 26.12544386 -17 22 C-18.4530808 17.6407576 -18.63097336 13.5515157 -18 9 C-14.5011527 2.0023054 -7.64419299 -1.54286464 0 0 Z M-12.75 6.4375 C-15.26104926 9.57631158 -15.33218152 13.0313222 -15.2890625 16.93359375 C-14.81603804 20.3150794 -13.1444493 22.42666084 -11 25 C-7.29519659 27.46986894 -4.29780299 27.67432448 0 27 C3.75212276 24.98497111 5.63644095 23.54533858 8 20 C8.68588834 15.7395782 9.20208688 11.03294105 6.9375 7.203125 C1.25240841 1.95059473 -6.79439782 1.54539821 -12.75 6.4375 Z " fill="#D9D9D9" transform="translate(285,275)"/>
<path d="M0 0 C4.83831756 2.3295603 7.6006196 5.20123921 10 10 C10.81489668 16.41731135 9.70890694 19.74571517 6 25 C1.56731552 29.02971317 -2.77802532 29.34856375 -8.55859375 29.28125 C-13.09498808 28.75865737 -14.99994978 26.17247268 -17.8125 22.875 C-20.04103673 17.47959528 -19.70126107 12.10378321 -17.875 6.625 C-13.17981458 0.05174041 -7.68016096 -1.22582374 0 0 Z M-15 7 C-16.67967818 12.03903455 -16.87064828 17.05140623 -14.6875 21.9375 C-12.64156903 24.4380823 -10.96692278 25.84189731 -7.73046875 26.37109375 C-3.24208714 26.48830187 -0.01154187 26.56577717 3.5625 23.625 C6.93868294 19.98911068 7.29089822 18.00947685 7.21875 13.03125 C6.80618697 9.20030754 5.00116304 6.89474875 2.19921875 4.390625 C-3.45755751 0.81369365 -10.65866249 2.0984899 -15 7 Z " fill="#D5D5D5" transform="translate(125,20)"/>
<path d="M0 0 C4.62 0 9.24 0 14 0 C14 4.62 14 9.24 14 14 C9.38 14 4.76 14 0 14 C0 9.38 0 4.76 0 0 Z " fill="#E9E9E9" transform="translate(86,283)"/>
<path d="M0 0 C4.62 0 9.24 0 14 0 C14 4.62 14 9.24 14 14 C9.38 14 4.76 14 0 14 C0 9.38 0 4.76 0 0 Z " fill="#EAEAEA" transform="translate(66,283)"/>
<path d="M0 0 C4.62 0 9.24 0 14 0 C14 4.62 14 9.24 14 14 C9.38 14 4.76 14 0 14 C0 9.38 0 4.76 0 0 Z " fill="#EBEBEB" transform="translate(46,283)"/>
<path d="M0 0 C4.62 0 9.24 0 14 0 C14 4.62 14 9.24 14 14 C9.38 14 4.76 14 0 14 C0 9.38 0 4.76 0 0 Z " fill="#EAEAEA" transform="translate(26,283)"/>
<path d="M0 0 C0.66 0 1.32 0 2 0 C1.37977649 3.54413437 -0.02096463 5.65440131 -2.1875 8.5 C-6.15908842 13.83103893 -10.00567179 19.23752938 -13.8125 24.6875 C-14.41408936 25.54762695 -15.01567871 26.40775391 -15.63549805 27.29394531 C-18.97886984 32.08158561 -22.30061256 36.88324389 -25.59838867 41.70239258 C-27.72382826 44.80743732 -29.85990892 47.9050419 -32 51 C-32.6290625 51.91265625 -33.258125 52.8253125 -33.90625 53.765625 C-35.19252051 55.56892581 -36.58196834 57.29836201 -38 59 C-38.99 59 -39.98 59 -41 59 C-39.50465704 54.55550843 -37.05886488 51.12846714 -34.25 47.4375 C-29.74424844 41.4071551 -25.36591729 35.30135484 -21.0625 29.125 C-20.47791016 28.28718994 -19.89332031 27.44937988 -19.29101562 26.58618164 C-18.1124975 24.89685322 -16.93427357 23.20731953 -15.75634766 21.51757812 C-12.92877946 17.46449454 -10.0925248 13.41760528 -7.25 9.375 C-6.49795288 8.30016357 -6.49795288 8.30016357 -5.73071289 7.20361328 C-3.93159664 4.64758424 -2.21491308 2.21491308 0 0 Z " fill="#D9D9D9" transform="translate(158,97)"/>
<path d="M0 0 C0.33 0 0.66 0 1 0 C1.26265328 3.86296575 0.87946353 5.78113885 -1.45703125 8.86328125 C-2.25210083 9.93400879 -2.25210083 9.93400879 -3.06323242 11.02636719 C-3.64049072 11.78079102 -4.21774902 12.53521484 -4.8125 13.3125 C-6.01463937 14.92718167 -7.21513144 16.54309093 -8.4140625 18.16015625 C-9.01895508 18.9711377 -9.62384766 19.78211914 -10.24707031 20.61767578 C-12.81265542 24.10444173 -15.2560106 27.66900698 -17.6875 31.25 C-22.68410408 38.57829161 -27.81611719 45.80328634 -33 53 C-33.99 52.34 -34.98 51.68 -36 51 C-35.16082031 49.83210938 -35.16082031 49.83210938 -34.3046875 48.640625 C-29.19930931 41.52110888 -24.14427977 34.36798351 -19.125 27.1875 C-18.5374292 26.34767578 -17.9498584 25.50785156 -17.34448242 24.64257812 C-14.96751651 21.24496287 -12.5907012 17.84726021 -10.21923828 14.44580078 C-8.54497307 12.04510012 -6.86664718 9.64728746 -5.1875 7.25 C-4.67783691 6.51676514 -4.16817383 5.78353027 -3.64306641 5.02807617 C-2.45397071 3.33403611 -1.2307655 1.6640122 0 0 Z " fill="#DDDDDD" transform="translate(106,170)"/>
<path d="M0 0 C6.75 0.75 6.75 0.75 9 3 C9.17478259 5.56249057 9.23395354 8.00290984 9.1875 10.5625 C9.17783203 11.64144531 9.17783203 11.64144531 9.16796875 12.7421875 C9.09386158 17.88337216 8.72767283 22.90629022 8 28 C9.155 27.46375 10.31 26.9275 11.5 26.375 C16.09335667 24.33922432 20.74779218 22.48711234 25.4375 20.6875 C26.14777344 20.40890137 26.85804688 20.13030273 27.58984375 19.84326172 C29.37159847 19.1686791 31.18436689 18.5772244 33 18 C33.66 18.33 34.32 18.66 35 19 C31.39079948 23.52899678 26.8485608 24.84799893 21.5625 26.6875 C20.71623047 26.99494141 19.86996094 27.30238281 18.99804688 27.61914062 C15.03167159 29.03858738 11.17985969 30.35628444 7 31 C7 32.65 7 34.3 7 36 C6.896875 35.360625 6.79375 34.72125 6.6875 34.0625 C6.3471875 33.0415625 6.3471875 33.0415625 6 32 C5.01 31.67 4.02 31.34 3 31 C3.66 30.67 4.32 30.34 5 30 C5.33 20.76 5.66 11.52 6 2 C3.03 1.505 3.03 1.505 0 1 C0 0.67 0 0.34 0 0 Z " fill="#E6E6E6" transform="translate(183,102)"/>
<path d="M0 0 C-2.24498138 2.53386422 -4.19310384 3.67338842 -7.359375 4.83203125 C-8.22006592 5.15252441 -9.08075684 5.47301758 -9.9675293 5.80322266 C-10.88574463 6.13628418 -11.80395996 6.4693457 -12.75 6.8125 C-14.668393 7.52359609 -16.5863603 8.23584165 -18.50390625 8.94921875 C-19.44508301 9.29774902 -20.38625977 9.6462793 -21.35595703 10.00537109 C-24.82937545 11.31199221 -28.25565812 12.7127654 -31.6875 14.125 C-39.99087945 17.48325569 -48.47989732 20.24780188 -57 23 C-57 22.34 -57 21.68 -57 21 C-57.66 20.67 -58.32 20.34 -59 20 C-58.03964844 19.67128906 -57.07929687 19.34257812 -56.08984375 19.00390625 C-47.41902243 16.00449781 -38.84679439 12.80635576 -30.3125 9.4375 C-17.13560182 4.24991536 -17.13560182 4.24991536 -10.875 1.9375 C-9.84117187 1.55464844 -8.80734375 1.17179688 -7.7421875 0.77734375 C-5.01502797 0.00426007 -2.81727654 -0.15995526 0 0 Z " fill="#D3D3D3" transform="translate(185,134)"/>
<path d="M0 0 C0.99 0.495 0.99 0.495 2 1 C2 1.99 2 2.98 2 4 C-23.41 4 -48.82 4 -75 4 C-75 3.34 -75 2.68 -75 2 C-50.25 2 -25.5 2 0 2 C0 1.34 0 0.68 0 0 Z " fill="#E8E8E8" transform="translate(287,227)"/>
<path d="M0 0 C2.04797894 2.23036893 3.00100514 3.36877125 2.99609375 6.453125 C2.81175781 7.37609375 2.62742187 8.2990625 2.4375 9.25 C2.12619141 10.83167969 2.12619141 10.83167969 1.80859375 12.4453125 C0.60920851 17.71797226 -0.69965695 22.95874005 -2.046875 28.1953125 C-3.19288852 32.76997304 -4.15262444 37.36173377 -5 42 C-5.66 41.67 -6.32 41.34 -7 41 C-7.48174034 33.0154101 -5.68296962 25.45597785 -4.0625 17.6875 C-3.78123046 16.30417264 -3.50062608 14.92070986 -3.22070312 13.53710938 C-1.18175898 3.54527693 -1.18175898 3.54527693 0 0 Z " fill="#E0E0E0" transform="translate(58,96)"/>
<path d="M0 0 C0.66 0 1.32 0 2 0 C2.93842244 8.95766877 3.18630066 17.84333179 3.18530273 26.83959961 C3.18752769 29.0905141 3.2058707 31.34096612 3.22460938 33.59179688 C3.22753747 35.03124835 3.22952616 36.47070211 3.23046875 37.91015625 C3.23457764 39.20058838 3.23868652 40.49102051 3.24291992 41.82055664 C3 45 3 45 1 48 C0.67 46.02 0.34 44.04 0 42 C-0.33 42 -0.66 42 -1 42 C-1.12437969 34.05351978 -0.87694279 26.19267814 -0.35791016 18.26806641 C0.0266949 12.17408954 0.1058837 6.10596029 0 0 Z " fill="#A0A0A0" transform="translate(191,54)"/>
<path d="M0 0 C0.66 0.33 1.32 0.66 2 1 C2 11.23 2 21.46 2 32 C0.02 32.495 0.02 32.495 -2 33 C-1.85903487 29.37479395 -1.71131601 25.74989159 -1.5625 22.125 C-1.52318359 21.11179688 -1.48386719 20.09859375 -1.44335938 19.0546875 C-1.17743851 12.67258664 -0.71710563 6.34748471 0 0 Z " fill="#CECECE" transform="translate(186,176)"/>
<path d="M0 0 C0.93423645 3.01031744 1.04449911 3.86650268 0 7 C-0.40511 11.16016805 -0.32131662 14.92129422 0.875 18.9375 C4.26353428 22.22637151 8.43337642 22.42595914 13 23 C13 23.33 13 23.66 13 24 C12.2575 24.144375 11.515 24.28875 10.75 24.4375 C8.08093097 24.89602265 8.08093097 24.89602265 6 25.8125 C4 26 4 26 1.4375 24.375 C-2.61503348 20.42637764 -4.17939232 17.7351226 -4.375 12.0625 C-4.24450343 7.46077901 -3.38720476 3.38720476 0 0 Z " fill="#D2D2D2" transform="translate(110,23)"/>
<path d="M0 0 C-1 3 -1 3 -3.0378418 4.05908203 C-4.35522339 4.52870361 -4.35522339 4.52870361 -5.69921875 5.0078125 C-6.66150391 5.35457031 -7.62378906 5.70132813 -8.61523438 6.05859375 C-9.62908203 6.41050781 -10.64292969 6.76242188 -11.6875 7.125 C-12.68201172 7.48464844 -13.67652344 7.84429687 -14.70117188 8.21484375 C-19.44166875 9.89909214 -23.97199708 11.43467088 -29 12 C-29.33 11.34 -29.66 10.68 -30 10 C-25.69650212 8.26788675 -21.38958808 6.54472482 -17.07910156 4.83007812 C-15.11007156 4.0439459 -13.14478053 3.24903395 -11.1796875 2.453125 C-9.45105469 1.76476562 -9.45105469 1.76476562 -7.6875 1.0625 C-6.63949219 0.64097656 -5.59148437 0.21945313 -4.51171875 -0.21484375 C-2 -1 -2 -1 0 0 Z " fill="#D6D6D6" transform="translate(78,174)"/>
<path d="M0 0 C4.96916636 0.51405169 9.29026351 1.23384882 14 3 C13 6 13 6 10.41796875 7.3515625 C8.81888672 7.98191406 8.81888672 7.98191406 7.1875 8.625 C6.12917969 9.05039063 5.07085937 9.47578125 3.98046875 9.9140625 C1.64933181 10.76341515 -0.58132467 11.4729279 -3 12 C-2.5 10.1875 -2.5 10.1875 -1 8 C1.5863924 6.73847391 4.25200829 5.84356955 7 5 C6.401875 4.731875 5.80375 4.46375 5.1875 4.1875 C3.02775192 3.01506533 1.64209744 1.80630718 0 0 Z " fill="#EEEEEE" transform="translate(220,111)"/>
<path d="M0 0 C5.15836569 2.4171157 7.29975074 6.00855982 10.1875 10.6875 C11.73911182 13.17602028 13.32470212 15.58935013 15 18 C15.66 18 16.32 18 17 18 C17 18.66 17 19.32 17 20 C16.01 20 15.02 20 14 20 C13.67 20.66 13.34 21.32 13 22 C10.82596202 18.71314634 8.66204206 15.41975432 6.5 12.125 C5.87996094 11.18785156 5.25992188 10.25070313 4.62109375 9.28515625 C4.03457031 8.38925781 3.44804688 7.49335938 2.84375 6.5703125 C2.02680664 5.32918701 2.02680664 5.32918701 1.19335938 4.06298828 C0 2 0 2 0 0 Z " fill="#E1E1E1" transform="translate(51,207)"/>
<path d="M0 0 C0.66 0.33 1.32 0.66 2 1 C-1.46038497 5.18888707 -5.27474748 6.52712104 -10.25 8.25 C-10.99507812 8.518125 -11.74015625 8.78625 -12.5078125 9.0625 C-14.3349596 9.71839896 -16.16701828 10.36058777 -18 11 C-18.33 10.34 -18.66 9.68 -19 9 C-19.66 8.67 -20.32 8.34 -21 8 C-19.90300781 7.59007813 -18.80601562 7.18015625 -17.67578125 6.7578125 C-16.22134314 6.21357114 -14.76691667 5.66929867 -13.3125 5.125 C-12.59126953 4.85558594 -11.87003906 4.58617188 -11.12695312 4.30859375 C-10.42119141 4.04433594 -9.71542969 3.78007813 -8.98828125 3.5078125 C-7.95695068 3.12351074 -7.95695068 3.12351074 -6.90478516 2.73144531 C-5.28813416 2.1106447 -3.69373998 1.43236744 -2.10546875 0.7421875 C-1.41066406 0.49726562 -0.71585938 0.25234375 0 0 Z " fill="#D6D6D6" transform="translate(216,120)"/>
<path d="M0 0 C0 0.33 0 0.66 0 1 C-1.98 1.33 -3.96 1.66 -6 2 C-6 2.66 -6 3.32 -6 4 C-6.763125 4.226875 -7.52625 4.45375 -8.3125 4.6875 C-11.70702913 6.3452933 -12.49936705 7.54854422 -14 11 C-14.51202662 13.67944029 -14.76895958 16.27372308 -15 19 C-15.33 19 -15.66 19 -16 19 C-16.144375 18.0925 -16.28875 17.185 -16.4375 16.25 C-16.8417115 13.14512134 -16.8417115 13.14512134 -17.875 11 C-18 9 -18 9 -15.875 5.9375 C-10.88134749 0.53341029 -7.18450876 -0.365314 0 0 Z " fill="#C4C4C4" transform="translate(285,275)"/>
<path d="M0 0 C5.55697697 0.48472073 9.25937347 2.61076091 13.875 5.5 C14.90753906 6.12455078 14.90753906 6.12455078 15.9609375 6.76171875 C17.66311717 7.805317 19.33480642 8.89834521 21 10 C21 10.33 21 10.66 21 11 C15.77097208 11.70936425 12.50018954 9.29467589 8.25 6.625 C7.56550781 6.2125 6.88101563 5.8 6.17578125 5.375 C1.14268973 2.28537946 1.14268973 2.28537946 0 0 Z " fill="#E5E5E5" transform="translate(146,277)"/>
<path d="M0 0 C0.33 0 0.66 0 1 0 C1.86010847 9.67144186 1.86010847 9.67144186 -1.1875 13.5 C-5.7456245 17.55166622 -8.95678606 18.28107972 -15 18 C-15.33 17.34 -15.66 16.68 -16 16 C-14.783125 15.7525 -13.56625 15.505 -12.3125 15.25 C-7.02664753 13.93087575 -4.02638572 11.53957858 -1 7 C-0.60612212 4.67612053 -0.26513915 2.34206251 0 0 Z " fill="#EAEAEA" transform="translate(133,31)"/>
<path d="M0 0 C0.33 0 0.66 0 1 0 C1.68217868 5.03106777 -0.63480282 7.95351822 -3.5 11.8125 C-3.92925781 12.40998047 -4.35851562 13.00746094 -4.80078125 13.62304688 C-5.8567183 15.08962611 -6.92697296 16.54587804 -8 18 C-8.99 17.67 -9.98 17.34 -11 17 C-9.24756719 13.13124122 -6.85370412 9.72353199 -4.4375 6.25 C-4.02564453 5.64800781 -3.61378906 5.04601562 -3.18945312 4.42578125 C-2.15394469 2.93098838 -1.08020393 1.46282019 0 0 Z " fill="#D7D7D7" transform="translate(106,170)"/>
<path d="M0 0 C0.33 0 0.66 0 1 0 C1.33 5.61 1.66 11.22 2 17 C2.99 17.33 3.98 17.66 5 18 C5 18.66 5 19.32 5 20 C1.04170312 20.22822613 -1.67851541 19.55050009 -5.3125 18 C-6.19550781 17.62875 -7.07851562 17.2575 -7.98828125 16.875 C-8.65214844 16.58625 -9.31601563 16.2975 -10 16 C-10 15.67 -10 15.34 -10 15 C-7.03 15.33 -4.06 15.66 -1 16 C-0.67 10.72 -0.34 5.44 0 0 Z " fill="#F4F4F4" transform="translate(191,85)"/>
<path d="M0 0 C1.19725883 2.28703308 2.38297018 4.57884862 3.5625 6.875 C3.90474609 7.52597656 4.24699219 8.17695312 4.59960938 8.84765625 C5.46082891 10.53529857 6.23686703 12.26579593 7 14 C6 16 6 16 4 17 C3.35004703 15.58521865 2.70521278 14.16808513 2.0625 12.75 C1.70285156 11.96109375 1.34320313 11.1721875 0.97265625 10.359375 C0.09966721 8.24176302 -0.51338508 6.23330638 -1 4 C-2.32 3.67 -3.64 3.34 -5 3 C-2.25 0 -2.25 0 0 0 Z " fill="#C6C6C6" transform="translate(236,114)"/>
<path d="M0 0 C0.33 0 0.66 0 1 0 C1 10.89 1 21.78 1 33 C0.67 33 0.34 33 0 33 C-0.33 31.02 -0.66 29.04 -1 27 C-1.33 27 -1.66 27 -2 27 C-2.27675737 17.74400342 -1.53140195 9.12004552 0 0 Z " fill="#C9C9C9" transform="translate(192,69)"/>
<path d="M0 0 C0.33 0 0.66 0 1 0 C1.19658808 1.41543415 1.38187546 2.83244031 1.5625 4.25 C1.66691406 5.03890625 1.77132812 5.8278125 1.87890625 6.640625 C2.00027349 9.00532874 1.69633257 10.7511037 1 13 C2.11375 12.79375 3.2275 12.5875 4.375 12.375 C5.57125 12.25125 6.7675 12.1275 8 12 C8.66 12.66 9.32 13.32 10 14 C7.69 14.66 5.38 15.32 3 16 C3 15.34 3 14.68 3 14 C2.01 14 1.02 14 0 14 C-0.66 13.34 -1.32 12.68 -2 12 C-1.66887313 7.89402683 -1.15559618 3.96204403 0 0 Z " fill="#C0C0C0" transform="translate(41,173)"/>
<path d="M0 0 C1.54296875 1.6171875 1.54296875 1.6171875 3 4 C2.92578125 6.9453125 2.92578125 6.9453125 2.3125 10.125 C2.12300781 11.17945312 1.93351562 12.23390625 1.73828125 13.3203125 C1 16 1 16 -1 18 C-3.00706464 11.72792299 -1.98284456 6.07246147 0 0 Z " fill="#B7B7B7" transform="translate(58,96)"/>
<path d="M0 0 C6.05761794 -0.41776675 9.19025097 -0.12264203 14 4 C15.375 6.25 15.375 6.25 16 8 C13.24745102 6.9475548 10.66803027 5.82342035 8.0625 4.4375 C4.97712772 2.98926403 2.36765541 2.40091136 -1 2 C-0.67 1.34 -0.34 0.68 0 0 Z " fill="#E0E0E0" transform="translate(279,276)"/>
<path d="M0 0 C0.33 0.66 0.66 1.32 1 2 C1.66 2 2.32 2 3 2 C2.32584613 7.2584002 0.75734451 12.02638346 -1 17 C-1.33 17 -1.66 17 -2 17 C-2.25287193 10.93107371 -1.69832609 5.83799592 0 0 Z " fill="#D3D3D3" transform="translate(61,84)"/>
<path d="M0 0 C0.33 0.99 0.66 1.98 1 3 C-0.40833381 5.1962951 -1.81653657 7.16069889 -3.4375 9.1875 C-3.87126953 9.74630859 -4.30503906 10.30511719 -4.75195312 10.88085938 C-5.82546453 12.26108832 -6.9115694 13.63150539 -8 15 C-8.33 14.34 -8.66 13.68 -9 13 C-7.17846829 7.64185802 -4.17858365 3.71429658 0 0 Z " fill="#DFDFDF" transform="translate(96,186)"/>
<path d="M0 0 C0.66 1.32 1.32 2.64 2 4 C0.90751403 5.50852857 -0.19938499 7.00662831 -1.3125 8.5 C-1.92738281 9.3353125 -2.54226562 10.170625 -3.17578125 11.03125 C-3.77777344 11.6809375 -4.37976563 12.330625 -5 13 C-5.99 13 -6.98 13 -8 13 C-6.40956621 7.91061189 -3.2553049 4.12543357 0 0 Z " fill="#D2D2D2" transform="translate(125,143)"/>
<path d="M0 0 C6.75 0.75 6.75 0.75 9 3 C9.14507695 5.74485593 9.18652423 8.38480543 9.125 11.125 C9.11597656 11.87910156 9.10695312 12.63320312 9.09765625 13.41015625 C9.0740687 15.27357254 9.03819719 17.13682593 9 19 C8.67 19 8.34 19 8 19 C7.67 16.03 7.34 13.06 7 10 C6.67 10 6.34 10 6 10 C6 7.36 6 4.72 6 2 C3.03 1.505 3.03 1.505 0 1 C0 0.67 0 0.34 0 0 Z " fill="#C1C1C1" transform="translate(183,102)"/>
<path d="M0 0 C0.33 0.66 0.66 1.32 1 2 C-0.5923972 6.21985259 -2.33558412 10.33642816 -5 14 C-5.99 14 -6.98 14 -8 14 C-7.37606349 10.23880524 -5.65226285 7.81039958 -3.4375 4.75 C-2.79683594 3.85796875 -2.15617188 2.9659375 -1.49609375 2.046875 C-0.75552734 1.03367187 -0.75552734 1.03367187 0 0 Z " fill="#D3D3D3" transform="translate(177,69)"/>
<path d="M0 0 C0.66 0 1.32 0 2 0 C2.2358396 5.77807024 1.86783046 10.51324804 0 16 C-0.66 16 -1.32 16 -2 16 C-1.85764543 14.27054347 -1.71095618 12.54144346 -1.5625 10.8125 C-1.48128906 9.84957031 -1.40007813 8.88664062 -1.31640625 7.89453125 C-1.02333849 5.21350398 -0.57296246 2.6337014 0 0 Z " fill="#DFDFDF" transform="translate(64,70)"/>
<path d="M0 0 C3 1 3 1 4.421875 3.21484375 C4.86015625 4.11332031 5.2984375 5.01179687 5.75 5.9375 C6.19859375 6.83339844 6.6471875 7.72929687 7.109375 8.65234375 C7.40328125 9.42707031 7.6971875 10.20179688 8 11 C7 13 7 13 5 14 C4.15675328 12.421924 3.32576082 10.8372958 2.5 9.25 C2.0359375 8.36828125 1.571875 7.4865625 1.09375 6.578125 C0 4 0 4 0 0 Z " fill="#D3D3D3" transform="translate(281,215)"/>
<path d="M0 0 C0.33 0 0.66 0 1 0 C0.91297874 2.27155498 0.80480478 4.54230743 0.6875 6.8125 C0.62949219 8.07707031 0.57148437 9.34164062 0.51171875 10.64453125 C0 14 0 14 -1.54296875 15.94921875 C-2.02378906 16.29597656 -2.50460938 16.64273438 -3 17 C-2.88556397 14.9160597 -2.75804453 12.83283507 -2.625 10.75 C-2.55539063 9.58984375 -2.48578125 8.4296875 -2.4140625 7.234375 C-2.03751692 4.29305666 -1.5225877 2.50050989 0 0 Z " fill="#DFDFDF" transform="translate(45,161)"/>
<path d="M0 0 C0.55171875 0.36867187 1.1034375 0.73734375 1.671875 1.1171875 C-1.18222834 2.62279247 -4.00937142 3.74935546 -7.078125 4.7421875 C-7.87734375 5.00257813 -8.6765625 5.26296875 -9.5 5.53125 C-10.10328125 5.72460938 -10.7065625 5.91796875 -11.328125 6.1171875 C-11.658125 5.1271875 -11.988125 4.1371875 -12.328125 3.1171875 C-10.7533956 2.38992698 -9.16788221 1.68598328 -7.578125 0.9921875 C-6.69640625 0.59773437 -5.8146875 0.20328125 -4.90625 -0.203125 C-2.328125 -0.8828125 -2.328125 -0.8828125 0 0 Z " fill="#D1D1D1" transform="translate(155.328125,144.8828125)"/>
<path d="M0 0 C-0.33 0.99 -0.66 1.98 -1 3 C-3.72265625 4.16796875 -3.72265625 4.16796875 -7.0625 5.1875 C-8.16722656 5.53167969 -9.27195313 5.87585938 -10.41015625 6.23046875 C-11.26480469 6.48441406 -12.11945313 6.73835938 -13 7 C-12.03241798 4.57352487 -11.46849519 3.26657476 -9.16015625 1.953125 C-8.46792969 1.72109375 -7.77570313 1.4890625 -7.0625 1.25 C-6.37285156 1.00765625 -5.68320313 0.7653125 -4.97265625 0.515625 C-3 0 -3 0 0 0 Z " fill="#E3E3E3" transform="translate(230,116)"/>
<path d="M0 0 C0.33 0 0.66 0 1 0 C0.67 8.91 0.34 17.82 0 27 C-0.33 27 -0.66 27 -1 27 C-1.22616462 23.25085209 -1.42782662 19.50077551 -1.625 15.75 C-1.68945312 14.68652344 -1.75390625 13.62304688 -1.8203125 12.52734375 C-1.871875 11.50253906 -1.9234375 10.47773438 -1.9765625 9.421875 C-2.02893066 8.47924805 -2.08129883 7.53662109 -2.13525391 6.56542969 C-1.99211927 3.85052215 -1.3910908 2.30740658 0 0 Z " fill="#C7C7C7" transform="translate(184,243)"/>
<path d="M0 0 C0.33 0.99 0.66 1.98 1 3 C4.465 2.505 4.465 2.505 8 2 C8 2.66 8 3.32 8 4 C5.69 4.66 3.38 5.32 1 6 C1 7.65 1 9.3 1 11 C0.896875 10.360625 0.79375 9.72125 0.6875 9.0625 C0.460625 8.381875 0.23375 7.70125 0 7 C-0.99 6.67 -1.98 6.34 -3 6 C-2.34 5.67 -1.68 5.34 -1 5 C-0.34444881 2.47266765 -0.34444881 2.47266765 0 0 Z " fill="#F4F4F4" transform="translate(189,127)"/>
<path d="M0 0 C0.66 0 1.32 0 2 0 C2.05447047 1.41623216 2.09300508 2.83308191 2.125 4.25 C2.14820313 5.03890625 2.17140625 5.8278125 2.1953125 6.640625 C1.9828378 9.20731941 1.28654105 10.7916067 0 13 C-0.66 12.67 -1.32 12.34 -2 12 C-1 3.42857143 -1 3.42857143 0 0 Z " fill="#CDCDCD" transform="translate(55,110)"/>
<path d="M0 0 C0.75 1.5625 0.75 1.5625 1 4 C-0.13084437 6.50286409 -1.52139516 8.67007722 -3 11 C-3.99 10.67 -4.98 10.34 -6 10 C-4.34832443 6.4213696 -2.21713508 3.25179812 0 0 Z " fill="#CFCFCF" transform="translate(87,197)"/>
<path d="M0 0 C0 0.99 0 1.98 0 3 C-3.50776784 4.60355101 -6.14354879 5.22036864 -10 5 C-6.92000054 1.32769295 -4.7517398 0.43197635 0 0 Z " fill="#E4E4E4" transform="translate(164,141)"/>
<path d="M0 0 C1.45880109 0.14107747 2.91703551 0.28802415 4.375 0.4375 C5.59316406 0.55931641 5.59316406 0.55931641 6.8359375 0.68359375 C9 1 9 1 11 2 C11 2.66 11 3.32 11 4 C3.375 3.125 3.375 3.125 0 2 C0 1.34 0 0.68 0 0 Z " fill="#E9E9E9" transform="translate(117,82)"/>
<path d="M0 0 C3.94714588 3.94714588 3.94714588 3.94714588 4.09765625 6.9453125 C4.06510417 8.96354167 4.03255208 10.98177083 4 13 C3.01 13 2.02 13 1 13 C0.67 8.71 0.34 4.42 0 0 Z " fill="#C3C3C3" transform="translate(131,25)"/>
<path d="M0 0 C0.66 1.32 1.32 2.64 2 4 C0.02 6.97 0.02 6.97 -2 10 C-2.99 9.67 -3.98 9.34 -5 9 C-3.50163895 5.88801935 -1.80066242 2.9465385 0 0 Z " fill="#CFCFCF" transform="translate(100,178)"/>
<path d="M0 0 C-2.36551942 2.73902249 -4.54857221 3.93170092 -8 5 C-10.8125 5.125 -10.8125 5.125 -13 5 C-8.61576048 1.55524038 -5.69164233 -0.31620235 0 0 Z " fill="#EEEEEE" transform="translate(185,134)"/>
<path d="M0 0 C4.87362847 0.45336079 7.39042389 1.7089159 11 5 C8 6 8 6 5.95703125 5.0390625 C5.24933594 4.57242187 4.54164062 4.10578125 3.8125 3.625 C3.09707031 3.16351563 2.38164063 2.70203125 1.64453125 2.2265625 C1.10183594 1.82179688 0.55914062 1.41703125 0 1 C0 0.67 0 0.34 0 0 Z " fill="#E6E6E6" transform="translate(114,258)"/>
<path d="M0 0 C3.40312738 1.05875074 6.01353231 2.00902154 9 4 C9 4.66 9 5.32 9 6 C5.21213403 5.4739075 2.82847776 4.61896089 0 2 C0 1.34 0 0.68 0 0 Z " fill="#E5E5E5" transform="translate(73,233)"/>
<path d="M0 0 C2.50298434 2.93828597 3.46930939 5.17902761 4 9 C3.01 9.33 2.02 9.66 1 10 C-0.83691257 6.21812119 -1.15837626 4.05431692 0 0 Z " fill="#CBCBCB" transform="translate(279,207)"/>
<path d="M0 0 C1.85776765 3.13498292 2.20140476 5.37471432 2 9 C0.5 7.625 0.5 7.625 -1 6 C-1 5.34 -1 4.68 -1 4 C-2.32 3.67 -3.64 3.34 -5 3 C-2.25 0 -2.25 0 0 0 Z " fill="#D3D3D3" transform="translate(236,114)"/>
<path d="M0 0 C0.66 0 1.32 0 2 0 C2 3.63 2 7.26 2 11 C1.67 11 1.34 11 1 11 C0.67 9.02 0.34 7.04 0 5 C-1.98 5.99 -1.98 5.99 -4 7 C-2.68 4.69 -1.36 2.38 0 0 Z " fill="#424242" transform="translate(190,55)"/>
<path d="M0 0 C1.51400391 0.01740234 1.51400391 0.01740234 3.05859375 0.03515625 C4.07050781 0.04417969 5.08242187 0.05320312 6.125 0.0625 C7.29869141 0.07990234 7.29869141 0.07990234 8.49609375 0.09765625 C8.49609375 0.42765625 8.49609375 0.75765625 8.49609375 1.09765625 C7.8928125 1.21882813 7.28953125 1.34 6.66796875 1.46484375 C5.86875 1.63242187 5.06953125 1.8 4.24609375 1.97265625 C3.4571875 2.13507812 2.66828125 2.2975 1.85546875 2.46484375 C-0.47221769 3.089157 -2.39422577 3.94604167 -4.50390625 5.09765625 C-3.38261259 0.13192717 -3.38261259 0.13192717 0 0 Z " fill="#F0F0F0" transform="translate(115.50390625,20.90234375)"/>
<path d="M0 0 C3.2542015 2.83430453 4.5206753 4.68607774 5 9 C4.01 9.495 4.01 9.495 3 10 C0.96564469 6.27034861 0 4.33094958 0 0 Z " fill="#DFDFDF" transform="translate(274,199)"/>
<path d="M0 0 C-3.20336822 2.83374881 -5.78087253 3.5205537 -10 4 C-10.33 3.34 -10.66 2.68 -11 2 C-7.17679443 0.57741188 -4.08718695 -0.24042276 0 0 Z " fill="#E8E8E8" transform="translate(59,182)"/>
<path d="M0 0 C-7.28571429 4.57142857 -7.28571429 4.57142857 -12 4 C-4.75 -1.69642857 -4.75 -1.69642857 0 0 Z " fill="#F1F1F1" transform="translate(110,163)"/>
<path d="M0 0 C3.2542015 2.83430453 4.5206753 4.68607774 5 9 C4.01 9.495 4.01 9.495 3 10 C0.96564469 6.27034861 0 4.33094958 0 0 Z " fill="#E0E0E0" transform="translate(241,129)"/>
<path d="M0 0 C0 0.99 0 1.98 0 3 C-6.625 2.25 -6.625 2.25 -10 0 C-6.30581799 -1.231394 -3.7943739 -0.64432764 0 0 Z " fill="#CFCFCF" transform="translate(222,110)"/>
<path d="M0 0 C2.0245738 1.93254772 3.42105792 3.63158688 5 6 C4.625 8.1875 4.625 8.1875 4 10 C1.16625119 6.79663178 0.4794463 4.21912747 0 0 Z " fill="#E4E4E4" transform="translate(264,178)"/>
<path d="M0 0 C3.35595828 0.59927826 5.37801226 1.84622436 8 4 C6.3125 4.6875 6.3125 4.6875 4 5 C1.25 3.5625 1.25 3.5625 -1 2 C-0.67 1.34 -0.34 0.68 0 0 Z " fill="#D7D7D7" transform="translate(109,254)"/>
<path d="M0 0 C4.875 3.75 4.875 3.75 6 6 C5.01 6 4.02 6 3 6 C2.67 6.66 2.34 7.32 2 8 C-0.1519437 4.77208445 -0.20086443 3.71599191 0 0 Z " fill="#CACACA" transform="translate(62,221)"/>
<path d="M0 0 C2.50037734 2.17424117 3.43628586 3.73045798 4 7 C3.01 7.33 2.02 7.66 1 8 C-1.125 3.375 -1.125 3.375 0 0 Z " fill="#BCBCBC" transform="translate(262,172)"/>
<path d="M0 0 C2.02907167 3.3146667 2.12742133 5.4315979 1.625 9.25 C1.51414063 10.14203125 1.40328125 11.0340625 1.2890625 11.953125 C1.19367187 12.62859375 1.09828125 13.3040625 1 14 C0.67 14 0.34 14 0 14 C0.020625 12.9275 0.04125 11.855 0.0625 10.75 C0.14516436 7.21993579 0.14516436 7.21993579 -0.5625 4.75 C-1 3 -1 3 0 0 Z " fill="#B9B9B9" transform="translate(50,133)"/>
<path d="M0 0 C2.91517292 1.07401108 4.77810176 1.77810176 7 4 C5.3125 4.6875 5.3125 4.6875 3 5 C0.25 3.5625 0.25 3.5625 -2 2 C-1.34 1.34 -0.68 0.68 0 0 Z " fill="#D3D3D3" transform="translate(142,273)"/>
<path d="M0 0 C0.33 1.32 0.66 2.64 1 4 C1.99 4 2.98 4 4 4 C4 4.66 4 5.32 4 6 C3.01 6 2.02 6 1 6 C1 6.66 1 7.32 1 8 C0.34 8 -0.32 8 -1 8 C-1.125 2.25 -1.125 2.25 0 0 Z " fill="#F6F6F6" transform="translate(40,183)"/>
<path d="M0 0 C4.75 0.75 4.75 0.75 7 3 C6.34 3.66 5.68 4.32 5 5 C2.5 3.625 2.5 3.625 0 2 C0 1.34 0 0.68 0 0 Z " fill="#D6D6D6" transform="translate(123,263)"/>
<path d="M0 0 C3.63 0 7.26 0 11 0 C11 0.33 11 0.66 11 1 C10.2575 1.144375 9.515 1.28875 8.75 1.4375 C6.47972261 1.90187492 4.24240521 2.41863569 2 3 C1.34 2.01 0.68 1.02 0 0 Z " fill="#BCBCBC" transform="translate(112,46)"/>
<path d="M0 0 C3.71888239 0.50712033 6.73454239 1.11608215 10 3 C2.25 3.125 2.25 3.125 0 2 C0 1.34 0 0.68 0 0 Z " fill="#E9E9E9" transform="translate(273,301)"/>
<path d="M0 0 C0.66 0.33 1.32 0.66 2 1 C0 4 0 4 -2.5 4.8125 C-3.7375 4.9053125 -3.7375 4.9053125 -5 5 C-5.66 4.34 -6.32 3.68 -7 3 C-4.69631264 1.93347808 -2.35981813 0.93578995 0 0 Z " fill="#D1D1D1" transform="translate(100,164)"/>
<path d="M0 0 C-4.43076923 3.07692308 -4.43076923 3.07692308 -7.3125 2.6875 C-8.1478125 2.3471875 -8.1478125 2.3471875 -9 2 C-8.34 2 -7.68 2 -7 2 C-7 1.34 -7 0.68 -7 0 C-3.86650268 -1.04449911 -3.01031744 -0.93423645 0 0 Z " fill="#EEEEEE" transform="translate(145,150)"/>
<path d="M0 0 C5.75 0.75 5.75 0.75 8 3 C6.25 3.75 6.25 3.75 4 4 C1.75 2.0625 1.75 2.0625 0 0 Z " fill="#DEDEDE" transform="translate(146,277)"/>
<path d="M0 0 C4.75 0.875 4.75 0.875 7 2 C7 2.66 7 3.32 7 4 C2.25 3.125 2.25 3.125 0 2 C0 1.34 0 0.68 0 0 Z " fill="#E6E6E6" transform="translate(135,270)"/>
<path d="M0 0 C3.93846154 3.32307692 3.93846154 3.32307692 4.25 6.75 C4.1675 7.4925 4.085 8.235 4 9 C1.47740939 7.02579865 1.0070192 6.03254358 0.3125 2.8125 C0.209375 1.884375 0.10625 0.95625 0 0 Z " fill="#D8D8D8" transform="translate(58,215)"/>
<path d="M0 0 C0.99 0.33 1.98 0.66 3 1 C3.33 2.65 3.66 4.3 4 6 C3.01 6.495 3.01 6.495 2 7 C0 4 0 4 0 0 Z " fill="#DADADA" transform="translate(281,215)"/>
<path d="M0 0 C1.5 1.1875 1.5 1.1875 3 3 C3.1875 5.6875 3.1875 5.6875 3 8 C0.9375 6.25 0.9375 6.25 -1 4 C-0.75 1.75 -0.75 1.75 0 0 Z " fill="#E0E0E0" transform="translate(41,189)"/>
<path d="M0 0 C2.97 0.495 2.97 0.495 6 1 C3.64046906 3.35953094 2.22104383 3.49141413 -1 4 C-0.67 2.68 -0.34 1.36 0 0 Z " fill="#D3D3D3" transform="translate(45,185)"/>
<path d="M0 0 C1.5 1.125 1.5 1.125 3 3 C3.1875 6.1875 3.1875 6.1875 3 9 C0.90250005 6.64031256 0.03094296 5.45383006 -0.1875 2.25 C-0.125625 1.5075 -0.06375 0.765 0 0 Z " fill="#E1E1E1" transform="translate(259,166)"/>
<path d="M0 0 C2.64 0.33 5.28 0.66 8 1 C7.67 1.99 7.34 2.98 7 4 C4.69 3.34 2.38 2.68 0 2 C0 1.34 0 0.68 0 0 Z " fill="#E2E2E2" transform="translate(175,98)"/>
</svg>
