<?xml version="1.0" encoding="UTF-8"?>
<svg version="1.1" xmlns="http://www.w3.org/2000/svg" width="626" height="626">
<path d="M0 0 C206.58 0 413.16 0 626 0 C626 206.58 626 413.16 626 626 C419.42 626 212.84 626 0 626 C0 419.42 0 212.84 0 0 Z " fill="#FEFEFE" transform="translate(0,0)"/>
<path d="M0 0 C0 0.66 0 1.32 0 2 C0.99257813 2.08765625 1.98515625 2.1753125 3.0078125 2.265625 C7.42487938 2.9007588 10.96216639 4.68082617 14.875 6.75 C15.58261475 7.11633545 16.29022949 7.4826709 17.01928711 7.86010742 C18.40942771 8.58272503 19.79715838 9.31000265 21.18212891 10.04248047 C22.61594417 10.7977079 24.06180064 11.53007466 25.51171875 12.25390625 C37.47993604 18.43178603 49.26154963 27.73305747 59 37 C59 37.66 59 38.32 59 39 C59.99 39.33 60.98 39.66 62 40 C71.32809707 49.67971048 77.83259776 61.60426588 82.48046875 74.1015625 C84.26181047 77.4993917 85.74563913 78.11434159 89 80 C91.1328125 82.92578125 91.1328125 82.92578125 93.125 86.3125 C93.78757812 87.42238281 94.45015625 88.53226562 95.1328125 89.67578125 C100 98.34100418 100 98.34100418 100 103 C100.66 103 101.32 103 102 103 C102.66 104.65 103.32 106.3 104 108 C96.3666293 107.86121144 92.64145505 104.91214147 87 100 C85.989375 99.195625 84.97875 98.39125 83.9375 97.5625 C83.298125 97.046875 82.65875 96.53125 82 96 C83.89784876 102.43159858 86.43648072 107.90836446 89.79296875 113.71484375 C91 116 91 116 91 118 C88.5 118.4375 88.5 118.4375 85 118 C82.7663468 116.28374669 80.81143706 114.43642448 78.83203125 112.43359375 C78.22746094 111.96050781 77.62289063 111.48742187 77 111 C73.75371486 112.08209505 73.31301434 112.55644379 71.40625 115.203125 C70.93316406 115.85410156 70.46007812 116.50507813 69.97265625 117.17578125 C69.24369141 118.20251953 69.24369141 118.20251953 68.5 119.25 C67.77103516 120.25353516 67.77103516 120.25353516 67.02734375 121.27734375 C65.66249565 123.17028021 64.32556446 125.07941379 63 127 C62.4328125 127.81984375 61.865625 128.6396875 61.28125 129.484375 C59.49037024 132.76820428 59.49037024 132.76820428 58 140 C51.4 140 44.8 140 38 140 C33.69655172 126.91034483 33.69655172 126.91034483 35.8125 120.5625 C36.08311709 116.86406643 34.25836753 114.98711132 32.21484375 112.00390625 C30.63923471 109.40491128 30.22553849 107.00717985 30 104 C28.02 104 26.04 104 24 104 C24.33 107.63 24.66 111.26 25 115 C25.66 115 26.32 115 27 115 C27.34087334 116.54001707 27.67230953 118.08212406 28 119.625 C28.185625 120.48351562 28.37125 121.34203125 28.5625 122.2265625 C29.04421554 125.28029491 29.30795523 127.91628619 29 131 C27.5234375 132.94921875 27.5234375 132.94921875 25.375 134.6875 C24.55257813 135.36554688 23.73015625 136.04359375 22.8828125 136.7421875 C21.93148438 137.48726562 20.98015625 138.23234375 20 139 C18.91398787 139.85667623 17.82805378 140.71345141 16.7421875 141.5703125 C14.98681018 142.95156044 13.22882916 144.32890899 11.46337891 145.69726562 C6.53560856 149.52657325 1.77632932 153.53035442 -2.91308594 157.64770508 C-6.78673979 161 -6.78673979 161 -9 161 C-9 153.41 -9 145.82 -9 138 C-6.69 138.33 -4.38 138.66 -2 139 C-1.67 136.69 -1.34 134.38 -1 132 C7.42857143 128.71428571 7.42857143 128.71428571 12 128 C12 127.01 12 126.02 12 125 C11.38253906 124.90203125 10.76507813 124.8040625 10.12890625 124.703125 C4.05410132 123.6305567 -1.63031529 122.13129678 -7 119 C-7.33 118.34 -7.66 117.68 -8 117 C-11.76488477 116.44197768 -13.01549199 117.01022286 -16.26171875 119.15234375 C-17.41336918 120.06863968 -18.55512483 120.99748754 -19.6875 121.9375 C-25.89918626 126.94959313 -25.89918626 126.94959313 -28 128 C-28.17383449 133.97839481 -27.1876646 139.046741 -25.75390625 144.81640625 C-24.67397113 150.80920684 -24.43384668 156.92614654 -24 163 C68.73 163 161.46 163 257 163 C257 238.9 257 314.8 257 393 C50.42 393 -156.16 393 -369 393 C-369 317.1 -369 241.2 -369 163 C-315.54 163 -262.08 163 -207 163 C-206.34 161.68 -205.68 160.36 -205 159 C-202.875 157.75 -202.875 157.75 -201 157 C-201 156.01 -201 155.02 -201 154 C-201.99 154 -202.98 154 -204 154 C-203.70967339 152.52056973 -203.41764321 151.04147377 -203.125 149.5625 C-202.94324219 148.64210938 -202.76148438 147.72171875 -202.57421875 146.7734375 C-202.08145615 144.39342766 -201.52061971 142.04628501 -200.9375 139.6875 C-199.60898641 133.87133026 -199.34893022 127.94099613 -199 122 C-198.38253906 121.84144531 -197.76507813 121.68289063 -197.12890625 121.51953125 C-190.84231136 119.78760785 -185.50666031 117.48421416 -180 114 C-179.33226562 113.59265625 -178.66453125 113.1853125 -177.9765625 112.765625 C-167.38706049 105.65014934 -160.08645885 93.50642811 -157.375 81.15234375 C-157.25125 80.44207031 -157.1275 79.73179687 -157 79 C-158.02738281 79.04640625 -159.05476562 79.0928125 -160.11328125 79.140625 C-178.60997016 79.72682707 -178.60997016 79.72682707 -185.74609375 73.46875 C-190.24563057 68.26815221 -190.50692914 64.02082758 -190.4921875 57.328125 C-189.81825559 52.77106164 -187.93420523 50.86599013 -184.67578125 47.77734375 C-182.26201224 45.21728571 -181.85390868 42.34994943 -181 39 C-178.06399114 36.17717062 -175.75852335 35.57621864 -171.75 35.3125 C-170.41195312 35.21388672 -170.41195312 35.21388672 -169.046875 35.11328125 C-168.03367188 35.05720703 -168.03367188 35.05720703 -167 35 C-166.67 34.01 -166.34 33.02 -166 32 C-162.13538609 35.26076799 -162.13538609 35.26076799 -161.55859375 38.41015625 C-162 41 -162 41 -164.16015625 42.984375 C-172.94220429 48.32688606 -172.94220429 48.32688606 -177 48.5625 C-180.22507256 48.67421652 -180.22507256 48.67421652 -181.9375 51.5625 C-183.24296663 55.78606852 -183.43345037 58.5932546 -183 63 C-181.18836733 65.67431489 -180.12238923 65.95920359 -177 67 C-164.46419217 67.91169511 -151.91731602 65.94732844 -140 62 C-139.67 61.34 -139.34 60.68 -139 60 C-136.25855602 58.9440146 -133.53823629 57.97731802 -130.75 57.0625 C-125.80107757 55.43094126 -121.42528843 53.80850209 -117 51 C-115.28756705 50.23235764 -113.55797638 49.50171231 -111.8125 48.8125 C-110.95269531 48.46832031 -110.09289062 48.12414062 -109.20703125 47.76953125 C-107 47 -107 47 -105 47 C-105 46.34 -105 45.68 -105 45 C-80.95652174 34 -80.95652174 34 -77 34 C-77 33.34 -77 32.68 -77 32 C-76.24976563 31.69707031 -75.49953125 31.39414062 -74.7265625 31.08203125 C-67.99071219 28.32491368 -61.46761125 25.33313754 -55 22 C-53.70935522 21.35212693 -52.41772889 20.70620451 -51.125 20.0625 C-48.77393725 18.88935307 -46.42647902 17.70978457 -44.08203125 16.5234375 C-38.77654045 13.84762475 -33.49425081 11.26233857 -28 9 C-26.906875 8.525625 -25.81375 8.05125 -24.6875 7.5625 C-6.16735846 -0.36278579 -6.16735846 -0.36278579 0 0 Z " fill="#50586F" transform="translate(369,233)"/>
<path d="M0 0 C1.17433594 0.33644531 2.34867188 0.67289063 3.55859375 1.01953125 C6.354314 2.10655382 7.71947361 2.88206555 9.5625 5.1875 C7.888408 6.861592 5.73470573 6.51223635 3.4375 6.6875 C-0.88974657 7.04293225 -5.14833467 7.5202965 -9.4375 8.1875 C-9.4375 9.1775 -9.4375 10.1675 -9.4375 11.1875 C-8.79167969 11.19007813 -8.14585937 11.19265625 -7.48046875 11.1953125 C6.02695951 11.74965292 20.65037859 16.06466005 31.5625 24.1875 C32.48417969 24.85652344 33.40585937 25.52554687 34.35546875 26.21484375 C45.04697499 34.42465084 51.32114673 44.93643416 56.5625 57.1875 C56.5625 58.1775 56.5625 59.1675 56.5625 60.1875 C57.573125 60.105 58.58375 60.0225 59.625 59.9375 C65.1043057 60.28539243 68.63227361 62.25727361 72.5625 66.1875 C72.5625 67.1775 72.5625 68.1675 72.5625 69.1875 C71.32113281 68.71183594 71.32113281 68.71183594 70.0546875 68.2265625 C66.24402181 67.09274027 62.63023688 66.74588311 58.6875 66.5625 C57.99914062 66.52382813 57.31078125 66.48515625 56.6015625 66.4453125 C54.92226754 66.35201834 53.24242233 66.26871762 51.5625 66.1875 C51.5625 66.8475 51.5625 67.5075 51.5625 68.1875 C54.5325 69.1775 54.5325 69.1775 57.5625 70.1875 C58.12797602 76.69047425 56.16205813 81.29326381 53.5625 87.1875 C53.10875 88.404375 52.655 89.62125 52.1875 90.875 C50.47569731 94.36444395 48.50794442 96.79782286 45.8671875 99.609375 C44.33459641 101.26994886 44.33459641 101.26994886 43.5625 104.1875 C42.9025 104.1875 42.2425 104.1875 41.5625 104.1875 C40.48724806 106.83978812 39.46793849 109.47118454 38.5625 112.1875 C35.5925 112.1875 32.6225 112.1875 29.5625 112.1875 C29.48096067 110.60503293 29.42306443 109.02133727 29.375 107.4375 C29.34019531 106.55578125 29.30539062 105.6740625 29.26953125 104.765625 C29.61326316 101.74078417 30.56477459 100.43166398 32.5625 98.1875 C31.76585937 97.26130859 31.76585937 97.26130859 30.953125 96.31640625 C23.79225852 87.73120684 19.91067447 81.3885601 20.2890625 70.0078125 C20.63014169 66.48982433 21.35668036 63.50350401 22.5625 60.1875 C21.2425 60.8475 19.9225 61.5075 18.5625 62.1875 C18.5625 62.8475 18.5625 63.5075 18.5625 64.1875 C17.9025 64.1875 17.2425 64.1875 16.5625 64.1875 C16.2325 65.8375 15.9025 67.4875 15.5625 69.1875 C14.9025 69.1875 14.2425 69.1875 13.5625 69.1875 C13.5625 70.1775 13.5625 71.1675 13.5625 72.1875 C12.9025 72.1875 12.2425 72.1875 11.5625 72.1875 C11.5625 71.5275 11.5625 70.8675 11.5625 70.1875 C10.7271875 70.02314453 10.7271875 70.02314453 9.875 69.85546875 C9.111875 69.69691406 8.34875 69.53835938 7.5625 69.375 C6.44875 69.14876953 6.44875 69.14876953 5.3125 68.91796875 C2.5625 68.1875 2.5625 68.1875 -1.0625 66.6875 C-6.0820879 64.75974708 -11.11095644 64.40040914 -16.4375 64 C-17.40300781 63.91814453 -18.36851562 63.83628906 -19.36328125 63.75195312 C-21.7207107 63.5535556 -24.07846843 63.3656427 -26.4375 63.1875 C-23.85965154 65.83502004 -21.52101902 68.13182065 -18.4375 70.1875 C-18.4375 70.8475 -18.4375 71.5075 -18.4375 72.1875 C-19.0975 72.1875 -19.7575 72.1875 -20.4375 72.1875 C-20.8396875 73.29351562 -20.8396875 73.29351562 -21.25 74.421875 C-25.78210317 84.97690476 -37.00706186 95.46951911 -47.4375 100.1875 C-50.4375 100.5 -50.4375 100.5 -52.4375 100.1875 C-52.7675 99.1975 -53.0975 98.2075 -53.4375 97.1875 C-54.0975 97.1875 -54.7575 97.1875 -55.4375 97.1875 C-55.69144531 96.54683594 -55.94539062 95.90617187 -56.20703125 95.24609375 C-56.55121094 94.38113281 -56.89539063 93.51617187 -57.25 92.625 C-57.61609375 91.70460938 -57.9821875 90.78421875 -58.359375 89.8359375 C-59.19314338 87.78776736 -60.08492733 85.76315987 -61 83.75 C-62.92249358 78.98555938 -64.14819505 74.16053337 -65.4375 69.1875 C-66.0975 76.1175 -66.7575 83.0475 -67.4375 90.1875 C-78.05621859 89.12562814 -78.05621859 89.12562814 -83.69140625 86.36328125 C-87.35586304 84.79428908 -91.10860459 83.71926518 -94.9375 82.625 C-95.68104736 82.41222412 -96.42459473 82.19944824 -97.19067383 81.98022461 C-98.63027626 81.56884116 -100.06996997 81.157777 -101.50976562 80.74707031 C-106.93428035 79.17247713 -112.1920433 77.28568268 -117.4375 75.1875 C-117.1075 71.2275 -116.7775 67.2675 -116.4375 63.1875 C-117.4275 63.6825 -117.4275 63.6825 -118.4375 64.1875 C-118.9325 65.6725 -118.9325 65.6725 -119.4375 67.1875 C-120.0975 67.1875 -120.7575 67.1875 -121.4375 67.1875 C-121.685 67.744375 -121.9325 68.30125 -122.1875 68.875 C-123.66674818 71.61160913 -125.37217439 73.86400869 -127.4375 76.1875 C-128.0975 76.1875 -128.7575 76.1875 -129.4375 76.1875 C-129.9325 77.6725 -129.9325 77.6725 -130.4375 79.1875 C-136.02123945 83.95362046 -142.22601552 87.85567694 -148.7578125 91.1796875 C-150.61106577 92.08723531 -150.61106577 92.08723531 -151.4375 94.1875 C-157.70055209 97.56755986 -164.73497692 99.12316999 -171.6081543 100.74853516 C-175.2727936 101.619848 -178.79033446 102.6049578 -182.3125 103.9375 C-186.98574957 105.60974598 -191.53102235 105.46406555 -196.4375 105.1875 C-193.44093455 101.63893565 -190.17892407 101.12285602 -185.8125 100.03125 C-183.19738978 99.10219768 -182.34529946 98.14252222 -180.4375 96.1875 C-178.38075369 95.01459873 -176.29333232 93.89479987 -174.1875 92.8125 C-165.65449682 88.81161487 -165.65449682 88.81161487 -159.4375 82.1875 C-162.0775 82.1875 -164.7175 82.1875 -167.4375 82.1875 C-166.87981085 77.11850395 -164.49312369 73.29960639 -161.9375 69 C-161.4926123 68.24912109 -161.04772461 67.49824219 -160.58935547 66.72460938 C-151.3209222 51.47749492 -151.3209222 51.47749492 -145.1796875 49.4375 C-144.60476562 49.355 -144.02984375 49.2725 -143.4375 49.1875 C-143.4375 48.5275 -143.4375 47.8675 -143.4375 47.1875 C-141.289223 46.23271022 -139.14087842 45.27807687 -136.9921875 44.32421875 C-135.41274643 43.62143993 -133.83439081 42.91620895 -132.2578125 42.20703125 C-129.9892807 41.18910031 -127.71397046 40.18754693 -125.4375 39.1875 C-124.01050781 38.54748047 -124.01050781 38.54748047 -122.5546875 37.89453125 C-116.19126026 35.11968638 -110.29348347 33.29655615 -103.4375 32.1875 C-105.0875 35.4875 -106.7375 38.7875 -108.4375 42.1875 C-109.0975 42.1875 -109.7575 42.1875 -110.4375 42.1875 C-110.7675 43.5075 -111.0975 44.8275 -111.4375 46.1875 C-110.1175 45.8575 -108.7975 45.5275 -107.4375 45.1875 C-107.4375 44.5275 -107.4375 43.8675 -107.4375 43.1875 C-106.0480957 42.09008789 -106.0480957 42.09008789 -104.11328125 40.91015625 C-103.41396484 40.47896484 -102.71464844 40.04777344 -101.99414062 39.60351562 C-100.88329102 38.93352539 -100.88329102 38.93352539 -99.75 38.25 C-99.02876953 37.80720703 -98.30753906 37.36441406 -97.56445312 36.90820312 C-93.86974589 34.64414052 -90.15318579 32.41691148 -86.4375 30.1875 C-85.1071875 29.3521875 -85.1071875 29.3521875 -83.75 28.5 C-81.4375 27.1875 -81.4375 27.1875 -79.4375 27.1875 C-79.4375 26.5275 -79.4375 25.8675 -79.4375 25.1875 C-77.50740676 23.8629847 -75.51516603 22.6285947 -73.5 21.4375 C-72.29852951 20.72164355 -71.09801142 20.00418628 -69.8984375 19.28515625 C-69.30643555 18.9308252 -68.71443359 18.57649414 -68.10449219 18.21142578 C-65.88566137 16.84854112 -63.75784573 15.36799201 -61.625 13.875 C-58.390499 11.68730114 -55.33345877 10.2253721 -51.6315918 9.01318359 C-49.24783135 8.11612364 -47.11177674 6.98303221 -44.87109375 5.7734375 C-39.52871246 3.07456739 -34.26940549 1.62061007 -28.4375 0.375 C-27.51710938 0.15908203 -26.59671875 -0.05683594 -25.6484375 -0.27929688 C-16.74939176 -2.25338096 -8.76998675 -2.61046428 0 0 Z " fill="#8A92A9" transform="translate(383.4375,252.8125)"/>
<path d="M0 0 C0.66 0 1.32 0 2 0 C1.15520875 6.29223829 -0.56242766 10.4042539 -4.66015625 15.2734375 C-6.20793497 17.07082971 -6.20793497 17.07082971 -7 20 C-6.41347656 20.23332031 -5.82695312 20.46664063 -5.22265625 20.70703125 C0.82399219 24.22450161 4.83688743 32.51066228 7 39 C7.1875 41.9375 7.1875 41.9375 7 44 C9.31 44 11.62 44 14 44 C14.125 50.75 14.125 50.75 13 53 C-13.73 53 -40.46 53 -68 53 C-69.64213765 49.7157247 -70.50462704 47.36761166 -71.2890625 43.8671875 C-71.50820312 42.89652344 -71.72734375 41.92585938 -71.953125 40.92578125 C-72.17484375 39.91902344 -72.3965625 38.91226563 -72.625 37.875 C-72.85445312 36.86050781 -73.08390625 35.84601563 -73.3203125 34.80078125 C-75 27.2921782 -75 27.2921782 -75 25 C-74.40912598 24.92072266 -73.81825195 24.84144531 -73.20947266 24.75976562 C-60.94099489 23.05587575 -49.09155756 20.73633503 -37.25 17.0625 C-36.20537598 16.73894531 -35.16075195 16.41539062 -34.08447266 16.08203125 C-27.69677696 14.0330902 -21.53840518 11.63254188 -15.38964844 8.95092773 C-13 8 -13 8 -11 8 C-11 7.34 -11 6.68 -11 6 C-10.28972656 5.65066406 -9.57945312 5.30132812 -8.84765625 4.94140625 C-7.46900391 4.25884766 -7.46900391 4.25884766 -6.0625 3.5625 C-5.14597656 3.11003906 -4.22945313 2.65757812 -3.28515625 2.19140625 C-1.09471096 1.19474606 -1.09471096 1.19474606 0 0 Z " fill="#F9F9FA" transform="translate(257,343)"/>
<path d="M0 0 C1.17433594 0.33644531 2.34867187 0.67289063 3.55859375 1.01953125 C6.354314 2.10655382 7.71947361 2.88206555 9.5625 5.1875 C7.888408 6.861592 5.73470573 6.51223635 3.4375 6.6875 C-0.88974657 7.04293225 -5.14833467 7.5202965 -9.4375 8.1875 C-9.4375 9.1775 -9.4375 10.1675 -9.4375 11.1875 C-8.79167969 11.19007813 -8.14585937 11.19265625 -7.48046875 11.1953125 C6.02695951 11.74965292 20.65037859 16.06466005 31.5625 24.1875 C32.48417969 24.85652344 33.40585937 25.52554687 34.35546875 26.21484375 C45.04697499 34.42465084 51.32114673 44.93643416 56.5625 57.1875 C56.5625 58.1775 56.5625 59.1675 56.5625 60.1875 C57.573125 60.105 58.58375 60.0225 59.625 59.9375 C65.1043057 60.28539243 68.63227361 62.25727361 72.5625 66.1875 C72.5625 67.1775 72.5625 68.1675 72.5625 69.1875 C71.32113281 68.71183594 71.32113281 68.71183594 70.0546875 68.2265625 C66.24402181 67.09274027 62.63023688 66.74588311 58.6875 66.5625 C57.99914062 66.52382813 57.31078125 66.48515625 56.6015625 66.4453125 C54.92226754 66.35201834 53.24242233 66.26871762 51.5625 66.1875 C51.5625 66.8475 51.5625 67.5075 51.5625 68.1875 C54.5325 69.1775 54.5325 69.1775 57.5625 70.1875 C58.12792082 76.6898394 56.16273481 81.2942671 53.5625 87.1875 C53.31242188 87.85394531 53.06234375 88.52039063 52.8046875 89.20703125 C51.17759872 93.49917925 48.97000427 96.14837457 45.5625 99.1875 C46.5625 92.1875 46.5625 92.1875 47.09375 89.28125 C47.92245694 83.48030141 47.66645211 77.59474718 47.625 71.75 C47.61823242 69.93725586 47.61823242 69.93725586 47.61132812 68.08789062 C47.59960145 65.12104211 47.58318896 62.1542973 47.5625 59.1875 C46.9025 59.1875 46.2425 59.1875 45.5625 59.1875 C45.30855469 58.53523438 45.05460938 57.88296875 44.79296875 57.2109375 C40.4821169 46.26428 36.35762955 38.91098614 26.5625 32.1875 C25.48355469 31.42566406 25.48355469 31.42566406 24.3828125 30.6484375 C12.54982429 22.87930383 -1.69149282 20.43584958 -15.4375 18.1875 C-15.4375 17.5275 -15.4375 16.8675 -15.4375 16.1875 C-21.0475 16.1875 -26.6575 16.1875 -32.4375 16.1875 C-30.4575 13.5475 -28.4775 10.9075 -26.4375 8.1875 C-35.30657735 11.15296962 -43.73902548 14.57860586 -52.16015625 18.63671875 C-54.13881991 19.57298749 -56.1414996 20.46328332 -58.1796875 21.26171875 C-60.67816561 22.19133629 -60.67816561 22.19133629 -63.5 24.3125 C-66.4375 26.1875 -66.4375 26.1875 -70.4375 26.1875 C-70.7675 27.1775 -71.0975 28.1675 -71.4375 29.1875 C-73.5546875 30.3984375 -73.5546875 30.3984375 -76.3125 31.5625 C-81.31769334 33.70571595 -86.22703229 35.98939504 -91.125 38.3671875 C-93.4375 39.1875 -93.4375 39.1875 -96.4375 38.1875 C-93.31286093 34.88431013 -90.4182757 32.37692663 -86.4375 30.1875 C-85.550625 29.630625 -84.66375 29.07375 -83.75 28.5 C-81.4375 27.1875 -81.4375 27.1875 -79.4375 27.1875 C-79.4375 26.5275 -79.4375 25.8675 -79.4375 25.1875 C-77.50740676 23.8629847 -75.51516603 22.6285947 -73.5 21.4375 C-72.29852951 20.72164355 -71.09801142 20.00418628 -69.8984375 19.28515625 C-69.30643555 18.9308252 -68.71443359 18.57649414 -68.10449219 18.21142578 C-65.88566137 16.84854112 -63.75784573 15.36799201 -61.625 13.875 C-58.390499 11.68730114 -55.33345877 10.2253721 -51.6315918 9.01318359 C-49.24783135 8.11612364 -47.11177674 6.98303221 -44.87109375 5.7734375 C-39.52871246 3.07456739 -34.26940549 1.62061007 -28.4375 0.375 C-27.51710938 0.15908203 -26.59671875 -0.05683594 -25.6484375 -0.27929688 C-16.74939176 -2.25338096 -8.76998675 -2.61046428 0 0 Z " fill="#BBC1D3" transform="translate(383.4375,252.8125)"/>
<path d="M0 0 C4.46547912 0.45566114 8.03944912 1.38935691 12.13064575 3.20205688 C15.1098703 4.47375363 18.17176239 5.464488 21.24609375 6.48046875 C21.90207047 6.69818436 22.55804718 6.91589996 23.23390198 7.14021301 C25.3008349 7.82550026 27.36912765 8.50657126 29.4375 9.1875 C30.8510041 9.65531914 32.26441644 10.12341563 33.67773438 10.59179688 C37.11743607 11.73106851 40.55836936 12.86656691 44 14 C44.42780609 25.23664704 43.4526251 34.27220057 40 45 C40.99 45 41.98 45 43 45 C42.67 47.97 42.34 50.94 42 54 C18.09031362 55.78691604 18.09031362 55.78691604 11.5546875 52.0078125 C9.29380227 49.12956378 7.67892403 46.24977938 6 43 C4.33638694 40.65951488 2.54186723 38.43050765 0.75 36.1875 C-0.03890625 35.14980469 -0.8278125 34.11210937 -1.640625 33.04296875 C-4.02751476 29.96451325 -6.48955226 26.97781833 -9 24 C-7.4614092 20.19263971 -5.12165284 18.06130455 -2.0625 15.375 C-1.18722656 14.59898437 -0.31195313 13.82296875 0.58984375 13.0234375 C3 11 3 11 6 9 C4.47291037 5.56404834 2.40072955 2.88087546 0 0 Z " fill="#FBFBFC" transform="translate(280,342)"/>
<path d="M0 0 C0.33 0.99 0.66 1.98 1 3 C2.75592407 3.92407511 2.75592407 3.92407511 4.9375 4.5 C5.73929687 4.74363281 6.54109375 4.98726563 7.3671875 5.23828125 C8.23601562 5.48964844 9.10484375 5.74101562 10 6 C11.85419071 6.56242073 13.70835807 7.12491847 15.5625 7.6875 C17.04125215 8.12639904 18.52026655 8.56442084 20 9 C20 9.99 20 10.98 20 12 C19.15695312 12.20753906 18.31390625 12.41507812 17.4453125 12.62890625 C11.33693427 14.01521409 11.33693427 14.01521409 6.7578125 17.82421875 C6.13693824 19.94435334 6.13693824 19.94435334 6 23 C3.69 22.67 1.38 22.34 -1 22 C-1 29.59 -1 37.18 -1 45 C86.78 45.33 174.56 45.66 265 46 C265 46.33 265 46.66 265 47 C172.27 47 79.54 47 -16 47 C-17.49842579 44.00314841 -17.56908065 40.79213826 -17.9375 37.5 C-18.5764925 32.02702313 -19.35252957 26.67593374 -20.6328125 21.30859375 C-21.15591921 18.01969942 -21.39179249 15.33023617 -21 12 C-18.515625 9.453125 -18.515625 9.453125 -15.25 7.25 C-14.18265625 6.51265625 -13.1153125 5.7753125 -12.015625 5.015625 C-11.02046875 4.35046875 -10.0253125 3.6853125 -9 3 C-8.2678125 2.42121094 -7.535625 1.84242188 -6.78125 1.24609375 C-4.44076638 -0.39121826 -2.79072094 -0.23256008 0 0 Z " fill="#E4E6E9" transform="translate(361,349)"/>
<path d="M0 0 C-3.17063186 6.5064008 -7.3597309 9.00005007 -13.9375 11.3125 C-15.96735894 11.99793815 -18.00165968 12.66742769 -20.0390625 13.33007812 C-35.32727239 18.55304226 -45.77715673 27.55431345 -53 42 C-49.04 42 -45.08 42 -41 42 C-42.873788 45.74757599 -43.90374377 47.01833358 -47 49.5625 C-49.55772463 51.67356316 -51.133135 53.19970251 -53 56 C-55.1640625 56.94921875 -55.1640625 56.94921875 -57.625 57.6875 C-58.44226563 57.93886719 -59.25953125 58.19023437 -60.1015625 58.44921875 C-60.72804687 58.63097656 -61.35453125 58.81273437 -62 59 C-62 59.66 -62 60.32 -62 61 C-64.69926932 62.23492792 -67.40044875 63.46520598 -70.10546875 64.6875 C-71.78001369 65.44680783 -73.45130727 66.2135576 -75.11328125 67 C-78.55119846 68.58555827 -81.20654544 69.34485951 -85 69 C-84.505 68.01 -84.505 68.01 -84 67 C-83.071875 66.7834375 -83.071875 66.7834375 -82.125 66.5625 C-79.95811746 66.1897677 -79.95811746 66.1897677 -78.7578125 64.67578125 C-76.35830776 62.3882534 -73.69444025 61.13830534 -70.75 59.625 C-62.21699682 55.62411487 -62.21699682 55.62411487 -56 49 C-58.64 49 -61.28 49 -64 49 C-63.44231085 43.93100395 -61.05562369 40.11210639 -58.5 35.8125 C-58.0551123 35.06162109 -57.61022461 34.31074219 -57.15185547 33.53710938 C-47.8834222 18.28999492 -47.8834222 18.28999492 -41.7421875 16.25 C-40.87980469 16.12625 -40.87980469 16.12625 -40 16 C-40 15.34 -40 14.68 -40 14 C-37.851723 13.04521022 -35.70337842 12.09057687 -33.5546875 11.13671875 C-31.97524643 10.43393993 -30.39689081 9.72870895 -28.8203125 9.01953125 C-5.00307377 -1.66769126 -5.00307377 -1.66769126 0 0 Z " fill="#B7BED1" transform="translate(280,286)"/>
<path d="M0 0 C0 0.66 0 1.32 0 2 C-53.46 2 -106.92 2 -162 2 C-162 1.34 -162 0.68 -162 0 C-141.17317313 -0.15379321 -120.34631248 -0.3018294 -99.51939583 -0.4429636 C-89.84966013 -0.50862589 -80.17994464 -0.57619034 -70.51025391 -0.64819336 C-62.08467611 -0.71092761 -53.65908229 -0.7701331 -45.23344982 -0.82505554 C-40.7698786 -0.85427576 -36.30633585 -0.88529388 -31.84280777 -0.92053413 C-27.64537476 -0.95361786 -23.44793674 -0.98199903 -19.25044632 -1.00670624 C-17.70644404 -1.0166358 -16.16245191 -1.02831295 -14.61847687 -1.04183006 C-12.51722585 -1.05996974 -10.4160294 -1.07193253 -8.31472778 -1.08229065 C-7.13667635 -1.09058679 -5.95862492 -1.09888292 -4.74487495 -1.10743046 C-2 -1 -2 -1 0 0 Z " fill="#D1D4DC" transform="translate(162,394)"/>
<path d="M0 0 C0 1.32 0 2.64 0 4 C0.66 4.66 1.32 5.32 2 6 C0.43880578 6.79423861 -1.12401964 7.58527123 -2.6875 8.375 C-3.55761719 8.81585938 -4.42773438 9.25671875 -5.32421875 9.7109375 C-8 11 -8 11 -10.640625 12.03125 C-13.22545266 12.99363518 -13.22545266 12.99363518 -16.0625 15.125 C-19 17 -19 17 -23 17 C-23.33 17.99 -23.66 18.98 -24 20 C-26.1171875 21.2109375 -26.1171875 21.2109375 -28.875 22.375 C-33.88019334 24.51821595 -38.78953229 26.80189504 -43.6875 29.1796875 C-46 30 -46 30 -49 29 C-45.87536093 25.69681013 -42.9807757 23.18942663 -39 21 C-38.113125 20.443125 -37.22625 19.88625 -36.3125 19.3125 C-34 18 -34 18 -32 18 C-32 17.34 -32 16.68 -32 16 C-30.06990676 14.6754847 -28.07766603 13.4410947 -26.0625 12.25 C-24.86102951 11.53414355 -23.66051142 10.81668628 -22.4609375 10.09765625 C-21.57293457 9.56615967 -21.57293457 9.56615967 -20.66699219 9.02392578 C-18.44816137 7.66104112 -16.32034573 6.18049201 -14.1875 4.6875 C-4.16326531 -2.08163265 -4.16326531 -2.08163265 0 0 Z " fill="#B7BDD1" transform="translate(336,262)"/>
<path d="M0 0 C-1.51325083 3.14290557 -3.188065 5.98010834 -5 9 C80.14 9 165.28 9 253 9 C253 9.33 253 9.66 253 10 C165.88 10 78.76 10 -11 10 C-9.22806695 6.45613391 -8.37102098 5.15873794 -5.5 2.75 C-4.8915625 2.22921875 -4.283125 1.7084375 -3.65625 1.171875 C-2 0 -2 0 0 0 Z " fill="#F1F3F8" transform="translate(373,385)"/>
<path d="M0 0 C0.33 0 0.66 0 1 0 C1 5.28 1 10.56 1 16 C-1.64 16 -4.28 16 -7 16 C-7 16.99 -7 17.98 -7 19 C-6.34 19 -5.68 19 -5 19 C-4.731875 19.61875 -4.46375 20.2375 -4.1875 20.875 C-3.04443152 23.2995233 -3.04443152 23.2995233 0 25 C-6.13433046 24.37731076 -11.6213953 22.62570695 -17.4375 20.625 C-18.79198242 20.16867187 -18.79198242 20.16867187 -20.17382812 19.703125 C-25.48935373 17.90177382 -30.75592485 15.99949532 -36 14 C-36 13.67 -36 13.34 -36 13 C-33.36 12.67 -30.72 12.34 -28 12 C-28 11.34 -28 10.68 -28 10 C-27.34 10 -26.68 10 -26 10 C-26 9.34 -26 8.68 -26 8 C-20.09302131 8.99227903 -15.37337882 10.31331059 -10 13 C-6.68068107 13.81729454 -3.37049953 14.40788522 0 15 C0 10.05 0 5.1 0 0 Z " fill="#5F657B" transform="translate(316,328)"/>
<path d="M0 0 C1.98 0 3.96 0 6 0 C6.25394531 0.67546875 6.50789063 1.3509375 6.76953125 2.046875 C7.28580078 3.38492187 7.28580078 3.38492187 7.8125 4.75 C8.14894531 5.63171875 8.48539062 6.5134375 8.83203125 7.421875 C9.87726697 10.03956378 9.87726697 10.03956378 11.69921875 12.015625 C13 14 13 14 12.69140625 16.38671875 C12.46324219 17.24910156 12.23507812 18.11148437 12 19 C11.93466565 20.93651019 11.91415697 22.87502861 11.9375 24.8125 C11.94652344 25.78832031 11.95554687 26.76414062 11.96484375 27.76953125 C11.97644531 28.50558594 11.98804688 29.24164063 12 30 C11.34 29.01 10.68 28.02 10 27 C6.9254644 27.7763932 6.9254644 27.7763932 5 30 C4.34 29.34 3.68 28.68 3 28 C3.33 27.67 3.66 27.34 4 27 C3.909084 24.29891496 3.76259234 21.63069689 3.5625 18.9375 C3.51029297 18.17888672 3.45808594 17.42027344 3.40429688 16.63867188 C3.27424165 14.75878278 3.13771962 12.87934315 3 11 C2.34 11 1.68 11 1 11 C-0.28317892 7.15046324 -0.06643637 4.05261865 0 0 Z " fill="#E6E8EC" transform="translate(393,337)"/>
<path d="M0 0 C0.66 0.33 1.32 0.66 2 1 C2.103125 2.216875 2.20625 3.43375 2.3125 4.6875 C2.62276776 8.08827795 3.30193316 9.74774343 5.625 12.25 C6.40875 13.1575 7.1925 14.065 8 15 C7.8125 17.375 7.8125 17.375 7 19 C7.66 19 8.32 19 9 19 C8.67 19.66 8.34 20.32 8 21 C6.02 20.01 4.04 19.02 2 18 C2 17.34 2 16.68 2 16 C0.68 16 -0.64 16 -2 16 C-3.20272819 13.59454362 -3.10071472 12.05003047 -3.0625 9.375 C-3.05347656 8.55773437 -3.04445312 7.74046875 -3.03515625 6.8984375 C-3.02355469 6.27195312 -3.01195312 5.64546875 -3 5 C-2.34 4.67 -1.68 4.34 -1 4 C-0.34786708 1.97536745 -0.34786708 1.97536745 0 0 Z " fill="#535B6D" transform="translate(182,286)"/>
<path d="M0 0 C2 1 2 1 3 3 C5.02463255 3.65213292 5.02463255 3.65213292 7 4 C1.010569 7.04175292 -4.99673733 10.05058622 -11.0625 12.9375 C-11.94035156 13.35902344 -12.81820313 13.78054688 -13.72265625 14.21484375 C-16 15 -16 15 -19 14 C-15.87536093 10.69681013 -12.9807757 8.18942663 -9 6 C-8.113125 5.443125 -7.22625 4.88625 -6.3125 4.3125 C-4 3 -4 3 -2 3 C-2 2.34 -2 1.68 -2 1 C-1.34 0.67 -0.68 0.34 0 0 Z " fill="#ADB5C9" transform="translate(306,277)"/>
<path d="M0 0 C0.66 0.33 1.32 0.66 2 1 C1.34 1.66 0.68 2.32 0 3 C0.66 3.66 1.32 4.32 2 5 C-0.55774456 6.17818551 -3.12034242 7.34265655 -5.6875 8.5 C-6.40873047 8.83386719 -7.12996094 9.16773438 -7.87304688 9.51171875 C-11.71460372 11.23077159 -14.69442688 12.47556626 -19 12 C-18.67 11.34 -18.34 10.68 -18 10 C-17.38125 9.855625 -16.7625 9.71125 -16.125 9.5625 C-13.95616137 9.18471676 -13.95616137 9.18471676 -12.71484375 7.66796875 C-10.50908787 5.52250688 -8.13213629 4.22828249 -5.4375 2.75 C-4.46683594 2.20859375 -3.49617187 1.6671875 -2.49609375 1.109375 C-1.67238281 0.74328125 -0.84867188 0.3771875 0 0 Z " fill="#A7AEC4" transform="translate(214,343)"/>
<path d="M0 0 C0.99 0.33 1.98 0.66 3 1 C3 1.66 3 2.32 3 3 C0.59454362 4.20272819 -0.94996953 4.10071472 -3.625 4.0625 C-4.85089844 4.04896484 -4.85089844 4.04896484 -6.1015625 4.03515625 C-7.04128906 4.01775391 -7.04128906 4.01775391 -8 4 C-8 4.99 -8 5.98 -8 7 C-6.02 7.66 -4.04 8.32 -2 9 C-5.65393537 10.26823485 -8.49070026 9.75715321 -12.25 9.0625 C-13.32765625 8.86785156 -14.4053125 8.67320312 -15.515625 8.47265625 C-16.33546875 8.31667969 -17.1553125 8.16070312 -18 8 C-18 7.01 -18 6.02 -18 5 C-12.04204521 3.01401507 -6.25107435 2.42954941 0 2 C0 1.34 0 0.68 0 0 Z " fill="#787F94" transform="translate(392,256)"/>
<path d="M0 0 C3.68646141 1.45855647 5.16143971 3.30229045 7.25 6.625 C7.77078125 7.44226563 8.2915625 8.25953125 8.828125 9.1015625 C9.21484375 9.72804688 9.6015625 10.35453125 10 11 C9.67 11.66 9.34 12.32 9 13 C7.68 12.34 6.36 11.68 5 11 C4.67 11.66 4.34 12.32 4 13 C3.01 12.67 2.02 12.34 1 12 C0.896875 11.236875 0.79375 10.47375 0.6875 9.6875 C-0.04364039 6.82940576 -0.76951913 5.84257115 -3 4 C-2.34 3.67 -1.68 3.34 -1 3 C-0.67 2.01 -0.34 1.02 0 0 Z " fill="#6E7385" transform="translate(454,311)"/>
<path d="M0 0 C0.53463867 0.16298584 1.06927734 0.32597168 1.62011719 0.49389648 C4.4937985 1.1050107 7.13965754 1.1120605 10.078125 1.09765625 C11.81835938 1.09282227 11.81835938 1.09282227 13.59375 1.08789062 C14.8003125 1.07951172 16.006875 1.07113281 17.25 1.0625 C18.47203125 1.05798828 19.6940625 1.05347656 20.953125 1.04882812 C23.96879946 1.03704815 26.98437498 1.02059853 30 1 C30 1.99 30 2.98 30 4 C25.56271849 4.11586755 21.12582409 4.18714058 16.6875 4.25 C15.42486328 4.28351563 14.16222656 4.31703125 12.86132812 4.3515625 C11.04858398 4.37089844 11.04858398 4.37089844 9.19921875 4.390625 C7.52605591 4.4220459 7.52605591 4.4220459 5.8190918 4.45410156 C3 4 3 4 1.11254883 1.97558594 C0.74540771 1.32364258 0.3782666 0.67169922 0 0 Z " fill="#D1D4DD" transform="translate(292,392)"/>
<path d="M0 0 C-1.07401108 2.91517292 -1.77810176 4.77810176 -4 7 C0.95 7.33 5.9 7.66 11 8 C11 8.33 11 8.66 11 9 C5.06 9 -0.88 9 -7 9 C-7 7.35 -7 5.7 -7 4 C-9.31 4.33 -11.62 4.66 -14 5 C-11.81385576 2.81385576 -10.46120051 2.31743465 -7.5625 1.375 C-6.38880859 0.98441406 -6.38880859 0.98441406 -5.19140625 0.5859375 C-3 0 -3 0 0 0 Z " fill="#9FA4B7" transform="translate(357,261)"/>
<path d="M0 0 C2.31 0.66 4.62 1.32 7 2 C7 2.66 7 3.32 7 4 C7.66 4 8.32 4 9 4 C9.66 5.65 10.32 7.3 11 9 C2.42857143 8.28571429 2.42857143 8.28571429 -1 5 C-0.67 3.35 -0.34 1.7 0 0 Z " fill="#545A6C" transform="translate(462,332)"/>
<path d="M0 0 C0.66 0.33 1.32 0.66 2 1 C-0.2349326 6.73091655 -2.30732011 10.9590812 -7 15 C-6.66666667 12.66666667 -6.33333333 10.33333333 -6 8 C-5.855625 6.72125 -5.71125 5.4425 -5.5625 4.125 C-5.376875 3.09375 -5.19125 2.0625 -5 1 C-3 0 -3 0 0 0 Z " fill="#B2B8CD" transform="translate(436,337)"/>
<path d="M0 0 C0.66 0.99 1.32 1.98 2 3 C1.40265389 5.02178685 0.72351427 7.01985568 0 9 C-0.37531446 11.32694964 -0.71917202 13.65976685 -1 16 C-1.33 16 -1.66 16 -2 16 C-2.33 13.36 -2.66 10.72 -3 8 C-3.66 9.32 -4.32 10.64 -5 12 C-5.66 12 -6.32 12 -7 12 C-6.67566492 6.64847115 -3.50295176 3.71719957 0 0 Z " fill="#616775" transform="translate(186,279)"/>
<path d="M0 0 C0.33 0.99 0.66 1.98 1 3 C1.33 2.34 1.66 1.68 2 1 C2.66 1 3.32 1 4 1 C3.8125 3.375 3.8125 3.375 3 6 C0.4375 7.3125 0.4375 7.3125 -2 8 C-2 8.66 -2 9.32 -2 10 C-3.32 10.33 -4.64 10.66 -6 11 C-5.67 9.68 -5.34 8.36 -5 7 C-4.34 7 -3.68 7 -3 7 C-2.87625 6.401875 -2.7525 5.80375 -2.625 5.1875 C-2 3 -2 3 0 0 Z " fill="#5A6278" transform="translate(278,288)"/>
<path d="M0 0 C4.8 2.46153846 4.8 2.46153846 5.8125 5.1875 C5.874375 5.785625 5.93625 6.38375 6 7 C4.74316406 6.52433594 4.74316406 6.52433594 3.4609375 6.0390625 C-0.2340989 4.92971749 -3.52889627 4.59270398 -7.375 4.375 C-8.62023437 4.30023438 -9.86546875 4.22546875 -11.1484375 4.1484375 C-12.08945312 4.09945313 -13.03046875 4.05046875 -14 4 C-14 3.67 -14 3.34 -14 3 C-9.38 2.67 -4.76 2.34 0 2 C0 1.34 0 0.68 0 0 Z " fill="#ADB4C9" transform="translate(450,315)"/>
<path d="M0 0 C0.99 0 1.98 0 3 0 C3.33 0.66 3.66 1.32 4 2 C5.97522846 3.04808041 7.97481509 4.0520411 10 5 C10 5.66 10 6.32 10 7 C11.65 7.33 13.3 7.66 15 8 C12.63011757 8.82707306 11.38269269 9.12634 8.96484375 8.328125 C8.29582031 7.97234375 7.62679687 7.6165625 6.9375 7.25 C6.26589844 6.90453125 5.59429687 6.5590625 4.90234375 6.203125 C2.95213413 4.96972754 1.48836165 3.76192345 0 2 C0 1.34 0 0.68 0 0 Z " fill="#787D8C" transform="translate(181,302)"/>
<path d="M0 0 C-6.59278183 2.87884807 -12.95001999 5.50865808 -20 7 C-20 6.01 -20 5.02 -20 4 C-19.34 4 -18.68 4 -18 4 C-17.67 3.34 -17.34 2.68 -17 2 C-16.01 2.33 -15.02 2.66 -14 3 C-11.06604714 2.20179439 -11.06604714 2.20179439 -7.9375 1 C-2.21632938 -1.10816469 -2.21632938 -1.10816469 0 0 Z " fill="#787E8A" transform="translate(244,352)"/>
<path d="M0 0 C1.2406987 3.72209609 0.4506902 4.47616033 -1 8 C-1.2759478 9.92903132 -1.48449903 11.8689032 -1.625 13.8125 C-1.69976562 14.78832031 -1.77453125 15.76414062 -1.8515625 16.76953125 C-1.90054687 17.50558594 -1.94953125 18.24164063 -2 19 C-2.33 19 -2.66 19 -3 19 C-3 14.71 -3 10.42 -3 6 C-3.99 6.33 -4.98 6.66 -6 7 C-6 6.34 -6 5.68 -6 5 C-5.34 5 -4.68 5 -4 5 C-4 4.34 -4 3.68 -4 3 C-2 1.375 -2 1.375 0 0 Z " fill="#656D84" transform="translate(406,312)"/>
<path d="M0 0 C0.66 0.33 1.32 0.66 2 1 C2 1.99 2 2.98 2 4 C0.54618103 4.69699552 -0.91322953 5.38233866 -2.375 6.0625 C-3.18710937 6.44535156 -3.99921875 6.82820313 -4.8359375 7.22265625 C-5.55007813 7.47917969 -6.26421875 7.73570312 -7 8 C-7.66 7.67 -8.32 7.34 -9 7 C-6.25604436 4.05278838 -3.61662784 1.80831392 0 0 Z " fill="#9BA3B8" transform="translate(286,290)"/>
<path d="M0 0 C0 3 0 3 -1.609375 4.90234375 C-2.31578125 5.57394531 -3.0221875 6.24554688 -3.75 6.9375 C-4.44609375 7.60652344 -5.1421875 8.27554687 -5.859375 8.96484375 C-6.56578125 9.63644531 -7.2721875 10.30804688 -8 11 C-9.33678606 12.32987165 -10.67116354 13.66218491 -12 15 C-12 11 -12 11 -9.375 8.203125 C-8.25992445 7.20752183 -7.13444431 6.22347586 -6 5.25 C-5.42765625 4.74339844 -4.8553125 4.23679687 -4.265625 3.71484375 C-2.85250146 2.46658463 -1.42736351 1.23195064 0 0 Z " fill="#D6D9E2" transform="translate(284,352)"/>
<path d="M0 0 C0.33 0.66 0.66 1.32 1 2 C3.64 2 6.28 2 9 2 C7.86280581 5.41158256 6.95657056 6.11854601 4 8 C3.34 8 2.68 8 2 8 C2 6.68 2 5.36 2 4 C1.34 3.67 0.68 3.34 0 3 C0 2.01 0 1.02 0 0 Z " fill="#687086" transform="translate(215,333)"/>
<path d="M0 0 C3.36720387 1.39332574 4.9859524 2.9789286 7 6 C6.01 6.33 5.02 6.66 4 7 C3.34 7.66 2.68 8.32 2 9 C0.14223235 5.86501708 -0.20140476 3.62528568 0 0 Z " fill="#E7ECF2" transform="translate(451,329)"/>
<path d="M0 0 C0.66 0.33 1.32 0.66 2 1 C0.68 2.65 -0.64 4.3 -2 6 C-3.65 5.67 -5.3 5.34 -7 5 C-7.33 5.99 -7.66 6.98 -8 8 C-8.99 7.34 -9.98 6.68 -11 6 C-10.34 6 -9.68 6 -9 6 C-9 5.34 -9 4.68 -9 4 C-7.54618103 3.30300448 -6.08677047 2.61766134 -4.625 1.9375 C-3.40683594 1.36322266 -3.40683594 1.36322266 -2.1640625 0.77734375 C-1.09285156 0.39255859 -1.09285156 0.39255859 0 0 Z " fill="#7C8190" transform="translate(273,274)"/>
<path d="M0 0 C0.66 0 1.32 0 2 0 C2.66 1.65 3.32 3.3 4 5 C-3.50769231 4.38461538 -3.50769231 4.38461538 -6 2.4375 C-6.33 1.963125 -6.66 1.48875 -7 1 C-4.69 1.33 -2.38 1.66 0 2 C0 1.34 0 0.68 0 0 Z " fill="#8A8D95" transform="translate(469,336)"/>
<path d="M0 0 C0.66 0 1.32 0 2 0 C2.14285714 8.57142857 2.14285714 8.57142857 1 12 C2.65 12.33 4.3 12.66 6 13 C3.50907189 14.24546405 2.58919267 13.7767578 0 13 C-0.19397476 11.02145742 -0.38001321 9.0421352 -0.5625 7.0625 C-0.66691406 5.96035156 -0.77132813 4.85820312 -0.87890625 3.72265625 C-0.91886719 2.82417969 -0.95882813 1.92570312 -1 1 C-0.67 0.67 -0.34 0.34 0 0 Z " fill="#676F86" transform="translate(265,316)"/>
<path d="M0 0 C0.66 0 1.32 0 2 0 C1.34 1.32 0.68 2.64 0 4 C4.95 4.33 9.9 4.66 15 5 C15 5.33 15 5.66 15 6 C9.06 6 3.12 6 -3 6 C-2 2 -2 2 0 0 Z " fill="#AAAFC4" transform="translate(353,264)"/>
<path d="M0 0 C1.65 0.33 3.3 0.66 5 1 C5 1.99 5 2.98 5 4 C-1.435 5.98 -1.435 5.98 -8 8 C-8 7.34 -8 6.68 -8 6 C-7.43410156 5.79503906 -6.86820312 5.59007812 -6.28515625 5.37890625 C-5.55167969 5.10949219 -4.81820313 4.84007812 -4.0625 4.5625 C-3.33160156 4.29566406 -2.60070312 4.02882813 -1.84765625 3.75390625 C-0.01694322 3.14613052 -0.01694322 3.14613052 1 2 C0.67 1.34 0.34 0.68 0 0 Z " fill="#C5CAD3" transform="translate(376,357)"/>
<path d="M0 0 C1.32 0.66 2.64 1.32 4 2 C3.67 4.31 3.34 6.62 3 9 C1.02 7.68 -0.96 6.36 -3 5 C-2.01 3.35 -1.02 1.7 0 0 Z " fill="#646A7C" transform="translate(454,311)"/>
<path d="M0 0 C-0.66 2.97 -1.32 5.94 -2 9 C-2.66 7.68 -3.32 6.36 -4 5 C-6.05000871 4.19471111 -6.05000871 4.19471111 -8 4 C-2.25 0 -2.25 0 0 0 Z " fill="#D7DCE5" transform="translate(259,343)"/>
<path d="M0 0 C1.65 0.33 3.3 0.66 5 1 C2.74402173 3.25597827 0.95396133 3.96574192 -2 5.125 C-2.886875 5.47820312 -3.77375 5.83140625 -4.6875 6.1953125 C-7 7 -7 7 -9 7 C-9 6.34 -9 5.68 -9 5 C-8.43410156 4.89042969 -7.86820312 4.78085938 -7.28515625 4.66796875 C-6.18494141 4.43013672 -6.18494141 4.43013672 -5.0625 4.1875 C-4.33160156 4.03667969 -3.60070312 3.88585937 -2.84765625 3.73046875 C-2.23792969 3.48941406 -1.62820313 3.24835938 -1 3 C-0.67 2.01 -0.34 1.02 0 0 Z " fill="#DCDFE6" transform="translate(353,234)"/>
<path d="M0 0 C0.66 0 1.32 0 2 0 C0.50163895 3.11198065 -1.19933758 6.0534615 -3 9 C-4.32 8.67 -5.64 8.34 -7 8 C-5.88200014 6.66079162 -4.75538103 5.32877444 -3.625 4 C-2.68527344 2.88625 -2.68527344 2.88625 -1.7265625 1.75 C-1.15679687 1.1725 -0.58703125 0.595 0 0 Z " fill="#E3E7EC" transform="translate(371,385)"/>
<path d="M0 0 C-0.99 0.495 -0.99 0.495 -2 1 C-2 1.66 -2 2.32 -2 3 C-3.423125 3.185625 -3.423125 3.185625 -4.875 3.375 C-8.08667191 3.71687177 -8.08667191 3.71687177 -10 6 C-9.67 4.35 -9.34 2.7 -9 1 C-5.92677456 0.08941469 -3.19902639 -0.08886184 0 0 Z " fill="#646977" transform="translate(378,363)"/>
<path d="M0 0 C0.66 0.33 1.32 0.66 2 1 C2 1.99 2 2.98 2 4 C2.99 4 3.98 4 5 4 C5 4.66 5 5.32 5 6 C3.02 6 1.04 6 -1 6 C-1.625 4.125 -1.625 4.125 -2 2 C-1.34 1.34 -0.68 0.68 0 0 Z " fill="#6F727F" transform="translate(455,345)"/>
<path d="M0 0 C2.97 0 5.94 0 9 0 C9 0.66 9 1.32 9 2 C10.32 2.66 11.64 3.32 13 4 C11 5 11 5 8.3984375 4.22265625 C6.90183594 3.64837891 6.90183594 3.64837891 5.375 3.0625 C4.37210937 2.68222656 3.36921875 2.30195313 2.3359375 1.91015625 C1.56507813 1.60980469 0.79421875 1.30945313 0 1 C0 0.67 0 0.34 0 0 Z " fill="#787D8D" transform="translate(280,341)"/>
<path d="M0 0 C0.33 0 0.66 0 1 0 C1 2.31 1 4.62 1 7 C0.34 7 -0.32 7 -1 7 C-1.33 7.99 -1.66 8.98 -2 10 C-2.99 10.33 -3.98 10.66 -5 11 C-4.731875 10.484375 -4.46375 9.96875 -4.1875 9.4375 C-2.67650593 6.33598585 -1.34427274 3.17737194 0 0 Z " fill="#747989" transform="translate(208,324)"/>
<path d="M0 0 C-0.33 0.99 -0.66 1.98 -1 3 C-2.64551962 3.71727778 -4.31422289 4.38325228 -6 5 C-6.66 5.66 -7.32 6.32 -8 7 C-10.125 6.625 -10.125 6.625 -12 6 C-10.37829621 4.99466333 -8.75252763 3.99588093 -7.125 3 C-5.76761719 2.1646875 -5.76761719 2.1646875 -4.3828125 1.3125 C-2 0 -2 0 0 0 Z " fill="#9DA3B7" transform="translate(324,267)"/>
<path d="M0 0 C-1.61992165 0.86375896 -3.24611861 1.71575854 -4.875 2.5625 C-6.23238281 3.27599609 -6.23238281 3.27599609 -7.6171875 4.00390625 C-8.40351563 4.33261719 -9.18984375 4.66132813 -10 5 C-10.66 4.67 -11.32 4.34 -12 4 C-9.69905075 1.25656051 -8.3914126 0.10176728 -4.875 -0.8125 C-2 -1 -2 -1 0 0 Z " fill="#D5D9DF" transform="translate(312,257)"/>
<path d="M0 0 C0.33 0.66 0.66 1.32 1 2 C-1.17508418 6.69360269 -1.17508418 6.69360269 -4.1875 7.8125 C-4.785625 7.874375 -5.38375 7.93625 -6 8 C-2.25 2.25 -2.25 2.25 0 0 Z " fill="#7A7E8C" transform="translate(202,335)"/>
<path d="M0 0 C0.144375 0.598125 0.28875 1.19625 0.4375 1.8125 C0.8872439 3.56150404 1.42892341 5.28677023 2 7 C0.68 7.33 -0.64 7.66 -2 8 C-2.6875 6.25 -2.6875 6.25 -3 4 C-1.5625 1.75 -1.5625 1.75 0 0 Z " fill="#C1C8DA" transform="translate(230,311)"/>
<path d="M0 0 C0.33 0.66 0.66 1.32 1 2 C-0.80831392 5.61662784 -3.05278838 8.25604436 -6 11 C-4.54955729 6.89041233 -2.48889248 3.56741255 0 0 Z " fill="#979EB3" transform="translate(234,315)"/>
<path d="M0 0 C0.66 0.33 1.32 0.66 2 1 C0.68 2.65 -0.64 4.3 -2 6 C-3.32 5.67 -4.64 5.34 -6 5 C-4.02 3.35 -2.04 1.7 0 0 Z " fill="#D0D1DB" transform="translate(353,351)"/>
<path d="M0 0 C1 2 1 2 0.0625 5.125 C-0.288125 6.07375 -0.63875 7.0225 -1 8 C-1.66 8 -2.32 8 -3 8 C-2.45276317 4.62537285 -1.9451 2.91765 0 0 Z " fill="#868997" transform="translate(182,283)"/>
<path d="M0 0 C3.465 1.98 3.465 1.98 7 4 C7 4.33 7 4.66 7 5 C5.02 5 3.04 5 1 5 C0.67 3.35 0.34 1.7 0 0 Z " fill="#626878" transform="translate(400,249)"/>
</svg>
